<svg width="24" height="24" viewBox="0 0 24 24" fill="none" xmlns="http://www.w3.org/2000/svg">
<path fill-rule="evenodd" clip-rule="evenodd" d="M3.85714 12.0002C3.85714 7.50303 7.50282 3.85735 12 3.85735C16.4972 3.85735 20.1429 7.50303 20.1429 12.0002C20.1429 16.4974 16.4972 20.1431 12 20.1431C7.50282 20.1431 3.85714 16.4974 3.85714 12.0002ZM12 2.14307C6.55605 2.14307 2.14285 6.55626 2.14285 12.0002C2.14285 17.4442 6.55605 21.8574 12 21.8574C17.4439 21.8574 21.8571 17.4442 21.8571 12.0002C21.8571 6.55626 17.4439 2.14307 12 2.14307ZM16.7167 10.3704C17.0592 10.0436 17.0719 9.50107 16.7452 9.15855C16.4184 8.81603 15.8759 8.80326 15.5333 9.13002L10.6224 13.8151L8.46719 11.7555C8.12494 11.4285 7.58237 11.4408 7.25531 11.783C6.92826 12.1253 6.94057 12.6678 7.28281 12.9949L10.0297 15.6199C10.3608 15.9363 10.8822 15.9365 11.2135 15.6204L16.7167 10.3704Z" fill="#FFFFFF"/>
</svg>
