<svg width="28" height="28" viewBox="0 0 28 28" fill="none" xmlns="http://www.w3.org/2000/svg">
<path d="M2.625 23.625H18.375" stroke="#49536E" stroke-width="2" stroke-linecap="round" stroke-linejoin="round"/>
<path d="M1.84843 15.3562L5.97187 19.2172C6.52169 19.7326 7.22317 20.0568 7.97201 20.1415C8.72085 20.2262 9.47704 20.067 10.1281 19.6875L26.6875 10.0625L24.6531 7.56875C24.1239 6.92241 23.381 6.48667 22.5586 6.34024C21.7362 6.19381 20.8885 6.34635 20.1687 6.77031L15.3125 9.625L8.75 7.4375L6.94531 8.21406C6.81029 8.27192 6.69202 8.36284 6.60138 8.47844C6.51075 8.59404 6.45068 8.7306 6.42671 8.87552C6.40273 9.02044 6.41563 9.16907 6.46421 9.3077C6.51279 9.44632 6.59549 9.57049 6.70468 9.66875L10.0625 12.6875L7 14.4375L3.9375 13.125L2.1 13.9125C1.96631 13.9699 1.84906 14.0598 1.75884 14.1739C1.66863 14.2881 1.60831 14.4229 1.58333 14.5663C1.55836 14.7096 1.56952 14.8569 1.61581 14.9948C1.66209 15.1328 1.74205 15.257 1.84843 15.3562V15.3562Z" stroke="#49536E" stroke-width="2" stroke-linecap="round" stroke-linejoin="round"/>
</svg>
