<svg width="28" height="28" viewBox="0 0 28 28" fill="none" xmlns="http://www.w3.org/2000/svg">
<path d="M17.9375 18.375C18.6624 18.375 19.25 17.7874 19.25 17.0625C19.25 16.3376 18.6624 15.75 17.9375 15.75C17.2126 15.75 16.625 16.3376 16.625 17.0625C16.625 17.7874 17.2126 18.375 17.9375 18.375Z" fill="#49536E"/>
<path d="M10.0625 18.375C10.7874 18.375 11.375 17.7874 11.375 17.0625C11.375 16.3376 10.7874 15.75 10.0625 15.75C9.33763 15.75 8.75 16.3376 8.75 17.0625C8.75 17.7874 9.33763 18.375 10.0625 18.375Z" fill="#49536E"/>
<path d="M2.625 21V18.4953C2.625 12.2063 7.67812 7.02188 13.9562 7C15.4537 6.99424 16.9376 7.28421 18.3227 7.85328C19.7078 8.42235 20.967 9.25931 22.0279 10.3162C23.0888 11.373 23.9306 12.6289 24.505 14.0118C25.0793 15.3948 25.375 16.8775 25.375 18.375V21C25.375 21.2321 25.2828 21.4546 25.1187 21.6187C24.9546 21.7828 24.7321 21.875 24.5 21.875H3.5C3.26794 21.875 3.04538 21.7828 2.88128 21.6187C2.71719 21.4546 2.625 21.2321 2.625 21Z" stroke="#49536E" stroke-width="2" stroke-linecap="round" stroke-linejoin="round"/>
<path d="M3.5 6.125L6.90156 9.52656" stroke="#49536E" stroke-width="2" stroke-linecap="round" stroke-linejoin="round"/>
<path d="M24.4998 6.125L21.1201 9.50469" stroke="#49536E" stroke-width="2" stroke-linecap="round" stroke-linejoin="round"/>
</svg>
