<svg width="28" height="28" viewBox="0 0 28 28" fill="none" xmlns="http://www.w3.org/2000/svg">
<path fill-rule="evenodd" clip-rule="evenodd" d="M3.375 14C3.375 13.4477 3.82272 13 4.375 13H23.625C24.1773 13 24.625 13.4477 24.625 14C24.625 14.5523 24.1773 15 23.625 15H4.375C3.82272 15 3.375 14.5523 3.375 14Z" fill="#49536E"/>
<path fill-rule="evenodd" clip-rule="evenodd" d="M15.0429 5.41789C15.4334 5.02737 16.0666 5.02737 16.4571 5.41789L24.3321 13.2929C24.7226 13.6834 24.7226 14.3166 24.3321 14.7071L16.4571 22.5821C16.0666 22.9726 15.4334 22.9726 15.0429 22.5821C14.6524 22.1916 14.6524 21.5584 15.0429 21.1679L22.2108 14L15.0429 6.83211C14.6524 6.44158 14.6524 5.80842 15.0429 5.41789Z" fill="#49536E"/>
</svg>
