<svg width="28" height="28" viewBox="0 0 28 28" fill="none" xmlns="http://www.w3.org/2000/svg">
<path fill-rule="evenodd" clip-rule="evenodd" d="M14 3.375C14.5523 3.375 15 3.82272 15 4.375V23.625C15 24.1773 14.5523 24.625 14 24.625C13.4477 24.625 13 24.1773 13 23.625V4.375C13 3.82272 13.4477 3.375 14 3.375Z" fill="#49536E"/>
<path fill-rule="evenodd" clip-rule="evenodd" d="M5.41789 15.0429C5.80842 14.6524 6.44158 14.6524 6.83211 15.0429L14 22.2108L21.1679 15.0429C21.5584 14.6524 22.1916 14.6524 22.5821 15.0429C22.9726 15.4334 22.9726 16.0666 22.5821 16.4571L14.7071 24.3321C14.3166 24.7226 13.6834 24.7226 13.2929 24.3321L5.41789 16.4571C5.02737 16.0666 5.02737 15.4334 5.41789 15.0429Z" fill="#49536E"/>
</svg>
