<svg width="28" height="28" viewBox="0 0 28 28" fill="none" xmlns="http://www.w3.org/2000/svg">
<path fill-rule="evenodd" clip-rule="evenodd" d="M14 4.5C8.75329 4.5 4.5 8.75329 4.5 14C4.5 19.2467 8.75329 23.5 14 23.5C19.2467 23.5 23.5 19.2467 23.5 14C23.5 8.75329 19.2467 4.5 14 4.5ZM2.5 14C2.5 7.64873 7.64873 2.5 14 2.5C20.3513 2.5 25.5 7.64873 25.5 14C25.5 20.3513 20.3513 25.5 14 25.5C7.64873 25.5 2.5 20.3513 2.5 14Z" fill="#49536E"/>
<path fill-rule="evenodd" clip-rule="evenodd" d="M13.9998 8.625C14.265 8.625 14.5194 8.73036 14.7069 8.91789L18.4147 12.6257C18.8052 13.0162 18.8052 13.6494 18.4147 14.0399C18.0242 14.4304 17.391 14.4304 17.0005 14.0399L13.9998 11.0392L10.9991 14.0399C10.6086 14.4304 9.97541 14.4304 9.58489 14.0399C9.19436 13.6494 9.19436 13.0162 9.58489 12.6257L13.2927 8.91789C13.4802 8.73036 13.7346 8.625 13.9998 8.625Z" fill="#49536E"/>
<path fill-rule="evenodd" clip-rule="evenodd" d="M14 8.625C14.5523 8.625 15 9.07272 15 9.625V18.375C15 18.9273 14.5523 19.375 14 19.375C13.4477 19.375 13 18.9273 13 18.375V9.625C13 9.07272 13.4477 8.625 14 8.625Z" fill="#49536E"/>
</svg>
