<svg width="28" height="28" viewBox="0 0 28 28" fill="none" xmlns="http://www.w3.org/2000/svg">
<path d="M5.25 4.375L22.75 23.625" stroke="#49536E" stroke-width="2" stroke-linecap="round" stroke-linejoin="round"/>
<path d="M10.5 24.5H17.5" stroke="#49536E" stroke-width="2" stroke-linecap="round" stroke-linejoin="round"/>
<path d="M10.1172 4.52812C11.3146 3.8405 12.674 3.48554 14.0547 3.5C18.3859 3.53281 21.8531 7.13125 21.8531 11.4734V12.25C21.8531 15.1703 22.3125 17.1719 22.8375 18.5172" stroke="#49536E" stroke-width="2" stroke-linecap="round" stroke-linejoin="round"/>
<path d="M20.366 21H5.35979C5.20483 21.0006 5.0525 20.96 4.91837 20.8824C4.78423 20.8049 4.67311 20.6931 4.59635 20.5585C4.51959 20.4238 4.47995 20.2713 4.48149 20.1163C4.48303 19.9614 4.52568 19.8096 4.6051 19.6766C5.32697 18.4406 6.14729 16.1656 6.14729 12.25V11.375C6.14639 9.77417 6.6307 8.21065 7.53635 6.89062" stroke="#49536E" stroke-width="2" stroke-linecap="round" stroke-linejoin="round"/>
</svg>
