<svg width="28" height="28" viewBox="0 0 28 28" fill="none" xmlns="http://www.w3.org/2000/svg">
<path d="M4.59375 7.875H23.4062" stroke="#49536E" stroke-width="2" stroke-linecap="round" stroke-linejoin="round"/>
<path d="M4.59375 13.125H23.4062" stroke="#49536E" stroke-width="2" stroke-linecap="round" stroke-linejoin="round"/>
<path d="M23.4062 21H4.59374V6.99999C4.5923 6.65487 4.65921 6.31287 4.79061 5.99374C4.92202 5.67461 5.11532 5.38465 5.35936 5.14061C5.6034 4.89657 5.89336 4.70327 6.21249 4.57186C6.53162 4.44046 6.87362 4.37355 7.21874 4.37499H20.7812C21.1264 4.37355 21.4684 4.44046 21.7875 4.57186C22.1066 4.70327 22.3966 4.89657 22.6406 5.14061C22.8847 5.38465 23.078 5.67461 23.2094 5.99374C23.3408 6.31287 23.4077 6.65487 23.4062 6.99999V21Z" stroke="#49536E" stroke-width="2" stroke-linecap="round" stroke-linejoin="round"/>
<path d="M23.4062 21V23.625C23.4062 23.8571 23.3141 24.0796 23.15 24.2437C22.9859 24.4078 22.7633 24.5 22.5312 24.5H19.9062C19.6742 24.5 19.4516 24.4078 19.2875 24.2437C19.1234 24.0796 19.0312 23.8571 19.0312 23.625V21" stroke="#49536E" stroke-width="2" stroke-linecap="round" stroke-linejoin="round"/>
<path d="M8.96875 21V23.625C8.96875 23.8571 8.87656 24.0796 8.71247 24.2437C8.54837 24.4078 8.32581 24.5 8.09375 24.5H5.46875C5.23669 24.5 5.01413 24.4078 4.85003 24.2437C4.68594 24.0796 4.59375 23.8571 4.59375 23.625V21" stroke="#49536E" stroke-width="2" stroke-linecap="round" stroke-linejoin="round"/>
<path d="M9.1875 18.375C9.91237 18.375 10.5 17.7874 10.5 17.0625C10.5 16.3376 9.91237 15.75 9.1875 15.75C8.46263 15.75 7.875 16.3376 7.875 17.0625C7.875 17.7874 8.46263 18.375 9.1875 18.375Z" fill="#49536E"/>
<path d="M18.8125 18.375C19.5374 18.375 20.125 17.7874 20.125 17.0625C20.125 16.3376 19.5374 15.75 18.8125 15.75C18.0876 15.75 17.5 16.3376 17.5 17.0625C17.5 17.7874 18.0876 18.375 18.8125 18.375Z" fill="#49536E"/>
</svg>
