<svg width="28" height="28" viewBox="0 0 28 28" fill="none" xmlns="http://www.w3.org/2000/svg">
<path d="M14 6.125V19.6875" stroke="#49536E" stroke-width="2" stroke-linecap="round" stroke-linejoin="round"/>
<path d="M20.4641 16.6688C21.3282 16.7125 23.6469 16.5266 24.5 13.125C25.3532 9.72344 26.1297 5.25 22.75 5.25C19.3704 5.25 14 10.5 14 14C14 10.5 8.62974 5.25 5.25005 5.25C1.87036 5.25 2.62505 9.625 3.50005 13.125C4.37505 16.625 6.67193 16.7125 7.53599 16.6688" stroke="#49536E" stroke-width="2" stroke-linecap="round" stroke-linejoin="round"/>
<path d="M9.625 15.7719C8.86971 15.8563 8.15499 16.1575 7.56711 16.6392C6.97922 17.1208 6.54328 17.7623 6.31191 18.4862C6.08053 19.2102 6.06361 19.9856 6.26317 20.7189C6.46273 21.4522 6.87026 22.1121 7.43657 22.619C8.00287 23.1258 8.70376 23.4579 9.45465 23.5753C10.2055 23.6926 10.9743 23.5901 11.6683 23.2802C12.3622 22.9702 12.9516 22.4661 13.3653 21.8286C13.7791 21.1911 13.9995 20.4475 14 19.6875C14.0005 20.4475 14.2209 21.1911 14.6347 21.8286C15.0484 22.4661 15.6378 22.9702 16.3317 23.2802C17.0257 23.5901 17.7945 23.6926 18.5453 23.5753C19.2962 23.4579 19.9971 23.1258 20.5634 22.619C21.1297 22.1121 21.5373 21.4522 21.7368 20.7189C21.9364 19.9856 21.9195 19.2102 21.6881 18.4862C21.4567 17.7623 21.0208 17.1208 20.4329 16.6392C19.845 16.1575 19.1303 15.8563 18.375 15.7719" stroke="#49536E" stroke-width="2" stroke-linecap="round" stroke-linejoin="round"/>
</svg>
