<svg width="28" height="28" viewBox="0 0 28 28" fill="none" xmlns="http://www.w3.org/2000/svg">
<path d="M3.5 13.125H9.7125C9.91401 13.1239 10.1096 13.1933 10.2654 13.3211C10.4212 13.4489 10.5274 13.6272 10.5656 13.825C10.7327 14.612 11.165 15.3177 11.7902 15.8241C12.4154 16.3304 13.1955 16.6067 14 16.6067C14.8045 16.6067 15.5846 16.3304 16.2098 15.8241C16.835 15.3177 17.2673 14.612 17.4344 13.825C17.4726 13.6272 17.5788 13.4489 17.7346 13.3211C17.8904 13.1933 18.086 13.1239 18.2875 13.125H24.5" stroke="#214099" stroke-width="2" stroke-linecap="round" stroke-linejoin="round"/>
<path fill-rule="evenodd" clip-rule="evenodd" d="M4.5 7.875C4.5 7.46079 4.83579 7.125 5.25 7.125H22.75C23.1642 7.125 23.5 7.46079 23.5 7.875V8.625H4.5V7.875ZM2.5 9.625V7.875C2.5 6.35622 3.73122 5.125 5.25 5.125H22.75C24.2688 5.125 25.5 6.35622 25.5 7.875V9.625V20.125C25.5 21.6438 24.2688 22.875 22.75 22.875H5.25C3.73122 22.875 2.5 21.6438 2.5 20.125V9.625ZM23.5 10.625V20.125C23.5 20.5392 23.1642 20.875 22.75 20.875H5.25C4.83579 20.875 4.5 20.5392 4.5 20.125V10.625H23.5Z" fill="#214099"/>
</svg>
