<svg width="28" height="28" viewBox="0 0 28 28" fill="none" xmlns="http://www.w3.org/2000/svg">
<path d="M14 21V24.5" stroke="#49536E" stroke-width="2" stroke-linecap="round" stroke-linejoin="round"/>
<path d="M9.1875 16.625C9.91237 16.625 10.5 16.0374 10.5 15.3125C10.5 14.5876 9.91237 14 9.1875 14C8.46263 14 7.875 14.5876 7.875 15.3125C7.875 16.0374 8.46263 16.625 9.1875 16.625Z" fill="#49536E"/>
<path d="M18.8125 16.625C19.5374 16.625 20.125 16.0374 20.125 15.3125C20.125 14.5876 19.5374 14 18.8125 14C18.0876 14 17.5 14.5876 17.5 15.3125C17.5 16.0374 18.0876 16.625 18.8125 16.625Z" fill="#49536E"/>
<path d="M14 5.25V9.625" stroke="#49536E" stroke-width="2" stroke-linecap="round" stroke-linejoin="round"/>
<path d="M15.75 19.25L14 21L12.25 19.25" stroke="#49536E" stroke-width="2" stroke-linecap="round" stroke-linejoin="round"/>
<path d="M10.5 5.79688V9.625" stroke="#49536E" stroke-width="2" stroke-linecap="round" stroke-linejoin="round"/>
<path d="M17.5 5.79688V9.625" stroke="#49536E" stroke-width="2" stroke-linecap="round" stroke-linejoin="round"/>
<path d="M3.5 14.875V5.61097C3.50029 5.43746 3.55216 5.26796 3.64901 5.124C3.74586 4.98004 3.88332 4.86813 4.04393 4.80248C4.20453 4.73683 4.38103 4.72041 4.55099 4.75531C4.72095 4.79021 4.87669 4.87484 4.99844 4.99847L7.39375 7.39378C9.30736 5.98612 11.6245 5.23422 14 5.25003C16.3755 5.23422 18.6926 5.98612 20.6062 7.39378V7.39378L23.0016 4.99847C23.1233 4.87484 23.2791 4.79021 23.449 4.75531C23.619 4.72041 23.7955 4.73683 23.9561 4.80248C24.1167 4.86813 24.2541 4.98004 24.351 5.124C24.4478 5.26796 24.4997 5.43746 24.5 5.61097V14.875C24.5 20.1907 19.7969 24.5 14 24.5C8.20312 24.5 3.5 20.1907 3.5 14.875Z" stroke="#49536E" stroke-width="2" stroke-linecap="round" stroke-linejoin="round"/>
</svg>
