<svg width="28" height="28" viewBox="0 0 28 28" fill="none" xmlns="http://www.w3.org/2000/svg">
<path d="M5.25 4.375L22.75 23.625" stroke="#49536E" stroke-width="2" stroke-linecap="round" stroke-linejoin="round"/>
<path d="M14.8096 9.69065L20.3768 4.12347C20.4985 3.99984 20.6543 3.91521 20.8242 3.88031C20.9942 3.84541 21.1707 3.86183 21.3313 3.92748C21.4919 3.99313 21.6293 4.10504 21.7262 4.249C21.823 4.39296 21.8749 4.56246 21.8752 4.73597V17.4563" stroke="#49536E" stroke-width="2" stroke-linecap="round" stroke-linejoin="round"/>
<path d="M22.75 23.625H2.98597C2.81246 23.6247 2.64296 23.5729 2.499 23.476C2.35504 23.3791 2.24313 23.2417 2.17748 23.0811C2.11183 22.9205 2.09541 22.744 2.13031 22.574C2.16521 22.4041 2.24984 22.2483 2.37347 22.1266L12.3375 12.1625" stroke="#49536E" stroke-width="2" stroke-linecap="round" stroke-linejoin="round"/>
</svg>
