<svg width="28" height="28" viewBox="0 0 28 28" fill="none" xmlns="http://www.w3.org/2000/svg">
<path d="M21.875 4.73593V22.75C21.875 22.9821 21.7828 23.2046 21.6187 23.3687C21.4547 23.5328 21.2321 23.625 21 23.625H2.98597C2.81246 23.6247 2.64296 23.5728 2.499 23.476C2.35504 23.3791 2.24313 23.2417 2.17748 23.0811C2.11183 22.9205 2.09541 22.744 2.13031 22.574C2.16521 22.4041 2.24984 22.2483 2.37347 22.1266L20.3766 4.12343C20.4983 3.99981 20.6541 3.91517 20.824 3.88028C20.994 3.84538 21.1705 3.8618 21.3311 3.92745C21.4917 3.9931 21.6292 4.10501 21.726 4.24897C21.8229 4.39293 21.8747 4.56243 21.875 4.73593Z" stroke="#49536E" stroke-width="2" stroke-linecap="round" stroke-linejoin="round"/>
</svg>
