<svg width="28" height="28" viewBox="0 0 28 28" fill="none" xmlns="http://www.w3.org/2000/svg">
<path d="M14.4375 23.625H5.2172C5.10619 23.6265 4.99602 23.6057 4.89318 23.5639C4.79033 23.5221 4.69691 23.4601 4.61841 23.3816C4.53991 23.3031 4.47793 23.2097 4.43612 23.1068C4.39432 23.004 4.37354 22.8938 4.37501 22.7828V13.5625C4.37501 10.8938 5.43516 8.33432 7.32225 6.44724C9.20933 4.56015 11.7688 3.5 14.4375 3.5V3.5C15.7589 3.5 17.0674 3.76027 18.2883 4.26596C19.5091 4.77165 20.6184 5.51285 21.5528 6.44724C22.4872 7.38163 23.2284 8.49091 23.734 9.71175C24.2397 10.9326 24.5 12.2411 24.5 13.5625V13.5625C24.5 14.8839 24.2397 16.1924 23.734 17.4133C23.2284 18.6341 22.4872 19.7434 21.5528 20.6778C20.6184 21.6121 19.5091 22.3533 18.2883 22.859C17.0674 23.3647 15.7589 23.625 14.4375 23.625V23.625Z" stroke="#49536E" stroke-width="2" stroke-linecap="round" stroke-linejoin="round"/>
<path d="M14.4375 15.3125C15.1624 15.3125 15.75 14.7249 15.75 14C15.75 13.2751 15.1624 12.6875 14.4375 12.6875C13.7126 12.6875 13.125 13.2751 13.125 14C13.125 14.7249 13.7126 15.3125 14.4375 15.3125Z" fill="#49536E"/>
<path d="M9.1875 15.3125C9.91237 15.3125 10.5 14.7249 10.5 14C10.5 13.2751 9.91237 12.6875 9.1875 12.6875C8.46263 12.6875 7.875 13.2751 7.875 14C7.875 14.7249 8.46263 15.3125 9.1875 15.3125Z" fill="#49536E"/>
<path d="M19.6875 15.3125C20.4124 15.3125 21 14.7249 21 14C21 13.2751 20.4124 12.6875 19.6875 12.6875C18.9626 12.6875 18.375 13.2751 18.375 14C18.375 14.7249 18.9626 15.3125 19.6875 15.3125Z" fill="#49536E"/>
</svg>
