<svg width="28" height="28" viewBox="0 0 28 28" fill="none" xmlns="http://www.w3.org/2000/svg">
<path fill-rule="evenodd" clip-rule="evenodd" d="M4.5 14C4.5 8.75329 8.75329 4.5 14 4.5C19.2467 4.5 23.5 8.75329 23.5 14C23.5 19.2467 19.2467 23.5 14 23.5C8.75329 23.5 4.5 19.2467 4.5 14ZM14 2.5C7.64873 2.5 2.5 7.64873 2.5 14C2.5 20.3513 7.64873 25.5 14 25.5C20.3513 25.5 25.5 20.3513 25.5 14C25.5 7.64873 20.3513 2.5 14 2.5ZM19.5028 12.0986C19.9024 11.7173 19.9173 11.0843 19.5361 10.6847C19.1548 10.2851 18.5218 10.2702 18.1222 10.6515L12.3928 16.1174L9.87839 13.7145C9.47911 13.333 8.8461 13.3473 8.46454 13.7466C8.08297 14.1459 8.09733 14.7789 8.49662 15.1605L11.7013 18.223C12.0876 18.5921 12.6959 18.5924 13.0825 18.2236L19.5028 12.0986Z" fill="#49536E"/>
</svg>
