<svg width="28" height="28" viewBox="0 0 28 28" fill="none" xmlns="http://www.w3.org/2000/svg">
<path fill-rule="evenodd" clip-rule="evenodd" d="M4.5 14C4.5 8.75329 8.75329 4.5 14 4.5C19.2467 4.5 23.5 8.75329 23.5 14C23.5 19.2467 19.2467 23.5 14 23.5C8.75329 23.5 4.5 19.2467 4.5 14ZM14 2.5C7.64873 2.5 2.5 7.64873 2.5 14C2.5 20.3513 7.64873 25.5 14 25.5C20.3513 25.5 25.5 20.3513 25.5 14C25.5 7.64873 20.3513 2.5 14 2.5ZM15 7.875C15 7.32272 14.5523 6.875 14 6.875C13.4477 6.875 13 7.32272 13 7.875V14C13 14.5523 13.4477 15 14 15H20.125C20.6773 15 21.125 14.5523 21.125 14C21.125 13.4477 20.6773 13 20.125 13H15V7.875Z" fill="#49536E"/>
</svg>
