<svg width="28" height="28" viewBox="0 0 28 28" fill="none" xmlns="http://www.w3.org/2000/svg">
<path fill-rule="evenodd" clip-rule="evenodd" d="M4.72318 7.31519C3.20234 7.99957 2.75 8.73881 2.75 9.1875C2.75 9.63619 3.20234 10.3754 4.72318 11.0598C5.40686 11.3675 6.23161 11.6248 7.15919 11.8095C7.18257 11.8132 7.20568 11.8178 7.2285 11.8231C8.21931 12.0154 9.32509 12.125 10.5 12.125C11.6749 12.125 12.7807 12.0154 13.7715 11.8231C13.7943 11.8178 13.8174 11.8132 13.8408 11.8095C14.7684 11.6248 15.5931 11.3675 16.2768 11.0598C17.7977 10.3754 18.25 9.63619 18.25 9.1875C18.25 8.73881 17.7977 7.99957 16.2768 7.31519C14.8498 6.67305 12.8083 6.25 10.5 6.25C8.19167 6.25 6.15015 6.67305 4.72318 7.31519ZM13 13.9704C12.1995 14.0717 11.3608 14.125 10.5 14.125C9.63916 14.125 8.8005 14.0717 8 13.9704V16.3277C8.78183 16.4389 9.62153 16.5 10.5 16.5C11.3785 16.5 12.2182 16.4389 13 16.3277V13.9704ZM15 15.9018V13.5984C15.7639 13.4067 16.4694 13.1663 17.0975 12.8837C17.4964 12.7042 17.887 12.496 18.25 12.259V13.5625C18.25 14.0125 17.7976 14.7516 16.2776 15.4355C15.8939 15.6081 15.4658 15.7649 15 15.9018ZM13 18.8495C12.5488 18.737 12.1185 18.6081 11.7131 18.4644C11.315 18.4879 10.91 18.5 10.5 18.5C10.248 18.5 9.99783 18.4954 9.75 18.4864V18.8125C9.75 19.2625 10.2024 20.0016 11.7224 20.6855C12.1061 20.8581 12.5342 21.0149 13 21.1518V18.8495ZM15 21.5777V19.2199C15.7998 19.3212 16.6385 19.375 17.5 19.375C18.3609 19.375 19.1996 19.3217 20 19.2206V21.5777C19.2182 21.6889 18.3785 21.75 17.5 21.75C16.6215 21.75 15.7818 21.6889 15 21.5777ZM6 13.5984C5.23609 13.4067 4.53059 13.1663 3.90245 12.8837C3.50362 12.7042 3.11299 12.496 2.75 12.259V13.5625C2.75 14.0125 3.20237 14.7516 4.72241 15.4355C5.10606 15.6081 5.53417 15.7649 6 15.9018V13.5984ZM3.90245 5.49135C2.25641 6.23206 0.75 7.46157 0.75 9.1875V13.5625C0.75 15.2891 2.25544 16.5187 3.90181 17.2594C4.98632 17.7473 6.30153 18.109 7.75 18.3123V18.8125C7.75 20.5391 9.25544 21.7687 10.9018 22.5094C12.6416 23.2922 14.9751 23.75 17.5 23.75C20.0249 23.75 22.3584 23.2922 24.0982 22.5094C25.7446 21.7687 27.25 20.5391 27.25 18.8125V14.4375V14.4375C27.25 12.9193 26.0717 11.7873 24.7251 11.0545C23.5291 10.4035 21.9774 9.93243 20.25 9.68721V9.1875C20.25 7.46157 18.7436 6.23206 17.0975 5.49135C15.3576 4.70839 13.0242 4.25 10.5 4.25C7.97584 4.25 5.64235 4.70839 3.90245 5.49135ZM25.25 17.5102C24.8872 17.747 24.4968 17.955 24.0982 18.1344C23.4699 18.4171 22.7642 18.6574 22 18.849V21.1518C22.4658 21.0149 22.8939 20.8581 23.2776 20.6855C24.7976 20.0016 25.25 19.2625 25.25 18.8125V17.5102ZM17.5 17.375C18.6715 17.375 19.7741 17.2662 20.7624 17.0753C20.7913 17.0682 20.8207 17.0624 20.8505 17.058C21.7746 16.8736 22.5962 16.617 23.2776 16.3105C24.7976 15.6266 25.25 14.8874 25.25 14.4375C25.25 14.0525 24.9244 13.44 23.769 12.8111C22.8866 12.3308 21.6764 11.9379 20.25 11.7098V13.5625C20.25 15.2891 18.7446 16.5187 17.0982 17.2594C17.0193 17.2949 16.9392 17.3297 16.8579 17.3639C17.0695 17.3712 17.2837 17.375 17.5 17.375Z" fill="#214099"/>
</svg>
