<svg width="28" height="28" viewBox="0 0 28 28" fill="none" xmlns="http://www.w3.org/2000/svg">
<path fill-rule="evenodd" clip-rule="evenodd" d="M9.625 3.375C9.07272 3.375 8.625 3.82272 8.625 4.375V8.625H4.375C3.82272 8.625 3.375 9.07272 3.375 9.625V23.625C3.375 24.1773 3.82272 24.625 4.375 24.625H18.375C18.9273 24.625 19.375 24.1773 19.375 23.625V19.375H23.625C24.1773 19.375 24.625 18.9273 24.625 18.375V4.375C24.625 3.82272 24.1773 3.375 23.625 3.375H9.625ZM19.375 17.375H22.625V5.375H10.625V8.625H18.375C18.9273 8.625 19.375 9.07272 19.375 9.625V17.375ZM9.625 10.625H5.375V22.625H17.375V18.375V10.625H9.625Z" fill="#49536E"/>
</svg>
