<svg width="28" height="28" viewBox="0 0 28 28" fill="none" xmlns="http://www.w3.org/2000/svg">
<path fill-rule="evenodd" clip-rule="evenodd" d="M19.25 3.625C19.6642 3.625 20 3.96079 20 4.375V23.625C20 24.0392 19.6642 24.375 19.25 24.375H8.75C8.33579 24.375 8 24.0392 8 23.625V4.375C8 3.96079 8.33579 3.625 8.75 3.625H19.25ZM22 4.375C22 2.85622 20.7688 1.625 19.25 1.625H8.75C7.23122 1.625 6 2.85622 6 4.375V23.625C6 25.1438 7.23122 26.375 8.75 26.375H19.25C20.7688 26.375 22 25.1438 22 23.625V4.375ZM10.5 5.125C9.94772 5.125 9.5 5.57272 9.5 6.125C9.5 6.67728 9.94772 7.125 10.5 7.125H17.5C18.0523 7.125 18.5 6.67728 18.5 6.125C18.5 5.57272 18.0523 5.125 17.5 5.125H10.5Z" fill="#49536E"/>
</svg>
