<svg width="28" height="28" viewBox="0 0 28 28" fill="none" xmlns="http://www.w3.org/2000/svg">
<path d="M13.3222 4.33125L3.78474 16.0781C3.68196 16.2065 3.61744 16.3612 3.59856 16.5246C3.57968 16.6879 3.60721 16.8533 3.678 17.0017C3.74878 17.1501 3.85995 17.2756 3.99877 17.3637C4.13759 17.4518 4.29843 17.4991 4.46286 17.5H23.5379C23.7023 17.4991 23.8631 17.4518 24.002 17.3637C24.1408 17.2756 24.2519 17.1501 24.3227 17.0017C24.3935 16.8533 24.421 16.6879 24.4022 16.5246C24.3833 16.3612 24.3188 16.2065 24.216 16.0781L14.6785 4.33125C14.5964 4.23062 14.493 4.14951 14.3757 4.09381C14.2584 4.03811 14.1302 4.00922 14.0004 4.00922C13.8705 4.00922 13.7423 4.03811 13.625 4.09381C13.5077 4.14951 13.4043 4.23062 13.3222 4.33125Z" stroke="#49536E" stroke-width="2" stroke-linecap="round" stroke-linejoin="round"/>
<path d="M24.5 22.75H3.5" stroke="#49536E" stroke-width="2" stroke-linecap="round" stroke-linejoin="round"/>
</svg>
