<svg width="28" height="28" viewBox="0 0 28 28" fill="none" xmlns="http://www.w3.org/2000/svg">
<path fill-rule="evenodd" clip-rule="evenodd" d="M2.5 6.125C2.5 5.57272 2.94772 5.125 3.5 5.125H24.5C25.0523 5.125 25.5 5.57272 25.5 6.125V21C25.5 21.4973 25.3025 21.9742 24.9508 22.3258C24.5992 22.6775 24.1223 22.875 23.625 22.875H4.375C3.87772 22.875 3.40081 22.6775 3.04917 22.3258C2.69754 21.9742 2.5 21.4973 2.5 21V6.125ZM4.5 7.125V20.875H23.5V7.125H4.5Z" fill="#49536E"/>
<path fill-rule="evenodd" clip-rule="evenodd" d="M2.76285 5.44928C3.13604 5.04216 3.76861 5.01466 4.17573 5.38785L14 14.3934L23.8243 5.38785C24.2314 5.01466 24.864 5.04216 25.2372 5.44928C25.6104 5.8564 25.5828 6.48897 25.1757 6.86216L14.6757 16.4872C14.2934 16.8376 13.7066 16.8376 13.3243 16.4872L2.82428 6.86216C2.41716 6.48897 2.38966 5.8564 2.76285 5.44928Z" fill="#49536E"/>
</svg>
