<svg width="28" height="28" viewBox="0 0 28 28" fill="none" xmlns="http://www.w3.org/2000/svg">
<path fill-rule="evenodd" clip-rule="evenodd" d="M3.88664 9.35539C5.98922 7.25282 9.29242 5.125 14 5.125C18.7076 5.125 22.0108 7.25282 24.1134 9.35539C25.1618 10.4038 25.9176 11.4505 26.4126 12.2367C26.6607 12.6306 26.8446 12.9614 26.9684 13.1976C27.0302 13.3158 27.0772 13.4105 27.1096 13.4777C27.1258 13.5114 27.1383 13.5382 27.1474 13.5577L27.1582 13.5815L27.1617 13.5891L27.1629 13.5918L27.1634 13.5929C27.1636 13.5934 27.1638 13.5939 26.25 14C27.1638 14.4061 27.1636 14.4066 27.1634 14.4071L27.1629 14.4082L27.1617 14.4109L27.1582 14.4185L27.1474 14.4423C27.1383 14.4618 27.1258 14.4886 27.1096 14.5223C27.0772 14.5895 27.0302 14.6842 26.9684 14.8024C26.8446 15.0386 26.6607 15.3694 26.4126 15.7633C25.9176 16.5495 25.1618 17.5962 24.1134 18.6446C22.0108 20.7472 18.7076 22.875 14 22.875C9.29242 22.875 5.98922 20.7472 3.88664 18.6446C2.83824 17.5962 2.08241 16.5495 1.58736 15.7633C1.33935 15.3694 1.15536 15.0386 1.03165 14.8024C0.969758 14.6842 0.922841 14.5895 0.890441 14.5223C0.874238 14.4886 0.861654 14.4618 0.852634 14.4423L0.841764 14.4185L0.838317 14.4109L0.837089 14.4082L0.836597 14.4071C0.836386 14.4066 0.836188 14.4061 1.75 14C0.836188 13.5939 0.836386 13.5934 0.836597 13.5929L0.837089 13.5918L0.838317 13.5891L0.841764 13.5815L0.852634 13.5577C0.861654 13.5382 0.874238 13.5114 0.890441 13.4777C0.922841 13.4105 0.969758 13.3158 1.03165 13.1976C1.15536 12.9614 1.33935 12.6306 1.58736 12.2367C2.08241 11.4505 2.83824 10.4038 3.88664 9.35539ZM1.75 14L0.836188 13.5939C0.721271 13.8524 0.721271 14.1476 0.836188 14.4061L1.75 14ZM2.8703 14C2.96988 14.1836 3.10585 14.4213 3.27983 14.6977C3.71446 15.388 4.38051 16.31 5.30086 17.2304C7.13578 19.0653 9.95758 20.875 14 20.875C18.0424 20.875 20.8642 19.0653 22.6991 17.2304C23.6195 16.31 24.2855 15.388 24.7202 14.6977C24.8941 14.4213 25.0301 14.1836 25.1297 14C25.0301 13.8164 24.8941 13.5787 24.7202 13.3023C24.2855 12.612 23.6195 11.69 22.6991 10.7696C20.8642 8.93468 18.0424 7.125 14 7.125C9.95758 7.125 7.13578 8.93468 5.30086 10.7696C4.38051 11.69 3.71446 12.612 3.27983 13.3023C3.10585 13.5787 2.96988 13.8164 2.8703 14ZM26.25 14L27.1638 14.4061C27.2787 14.1476 27.2787 13.8524 27.1638 13.5939L26.25 14Z" fill="#49536E"/>
<path fill-rule="evenodd" clip-rule="evenodd" d="M14 10.625C12.136 10.625 10.625 12.136 10.625 14C10.625 15.864 12.136 17.375 14 17.375C15.864 17.375 17.375 15.864 17.375 14C17.375 12.136 15.864 10.625 14 10.625ZM8.625 14C8.625 11.0315 11.0315 8.625 14 8.625C16.9685 8.625 19.375 11.0315 19.375 14C19.375 16.9685 16.9685 19.375 14 19.375C11.0315 19.375 8.625 16.9685 8.625 14Z" fill="#49536E"/>
</svg>
