<svg width="28" height="28" viewBox="0 0 28 28" fill="none" xmlns="http://www.w3.org/2000/svg">
<path fill-rule="evenodd" clip-rule="evenodd" d="M21.4936 13.0583C21.9714 12.7813 22.5833 12.9441 22.8603 13.4219L25.3649 17.7422C25.6419 18.22 25.4792 18.8319 25.0014 19.1089C24.5236 19.3859 23.9117 19.2231 23.6347 18.7453L21.13 14.425C20.853 13.9472 21.0158 13.3353 21.4936 13.0583Z" fill="#49536E"/>
<path fill-rule="evenodd" clip-rule="evenodd" d="M16.6917 15.3449C17.2357 15.2491 17.7543 15.6123 17.8501 16.1562L18.6266 20.564C18.7225 21.1079 18.3592 21.6265 17.8153 21.7224C17.2714 21.8182 16.7528 21.455 16.657 20.911L15.8804 16.5032C15.7846 15.9593 16.1478 15.4407 16.6917 15.3449Z" fill="#49536E"/>
<path fill-rule="evenodd" clip-rule="evenodd" d="M11.2963 15.3338C11.8403 15.4294 12.2038 15.9479 12.1082 16.4918L11.3316 20.9106C11.236 21.4545 10.7176 21.818 10.1736 21.7224C9.62966 21.6268 9.26619 21.1083 9.36179 20.5644L10.1383 16.1456C10.2339 15.6017 10.7524 15.2382 11.2963 15.3338Z" fill="#49536E"/>
<path fill-rule="evenodd" clip-rule="evenodd" d="M6.49362 13.0573C6.97202 13.3332 7.13614 13.9447 6.86018 14.4231L4.35549 18.7653C4.07954 19.2437 3.46801 19.4078 2.98961 19.1319C2.51121 18.8559 2.3471 18.2444 2.62305 17.766L5.12774 13.4238C5.40369 12.9454 6.01522 12.7813 6.49362 13.0573Z" fill="#49536E"/>
<path fill-rule="evenodd" clip-rule="evenodd" d="M2.87167 10.6957C3.30131 10.3487 3.93092 10.4157 4.27794 10.8453C6.00498 12.9835 9.11542 15.6252 14 15.6252C18.8846 15.6252 21.995 12.9835 23.7221 10.8453C24.0691 10.4157 24.6987 10.3487 25.1283 10.6957C25.558 11.0427 25.625 11.6723 25.2779 12.102C23.33 14.5137 19.7029 17.6252 14 17.6252C8.29709 17.6252 4.67003 14.5137 2.72206 12.102C2.37504 11.6723 2.44202 11.0427 2.87167 10.6957Z" fill="#49536E"/>
</svg>
