<svg width="28" height="28" viewBox="0 0 28 28" fill="none" xmlns="http://www.w3.org/2000/svg">
<path d="M19.6657 12.6656L20.2016 13.2016C20.5262 13.531 20.7082 13.975 20.7082 14.4375C20.7082 14.9 20.5262 15.344 20.2016 15.6734L19.436 16.4391C19.3545 16.5217 19.2575 16.5874 19.1505 16.6322C19.0434 16.677 18.9286 16.7001 18.8125 16.7001C18.6965 16.7001 18.5816 16.677 18.4746 16.6322C18.3676 16.5874 18.2705 16.5217 18.1891 16.4391L11.561 9.81094C11.4783 9.72952 11.4126 9.63247 11.3678 9.52544C11.323 9.41841 11.2999 9.30354 11.2999 9.1875C11.2999 9.07147 11.323 8.95659 11.3678 8.84956C11.4126 8.74253 11.4783 8.64548 11.561 8.56406L12.3266 7.79844C12.656 7.47381 13.1 7.29184 13.5625 7.29184C14.025 7.29184 14.469 7.47381 14.7985 7.79844L15.3344 8.33438L18.3532 5.31563C19.5344 4.13438 21.4594 4.06875 22.6625 5.21719C22.9595 5.4981 23.1973 5.83564 23.3618 6.2099C23.5263 6.58415 23.6142 6.98756 23.6203 7.39632C23.6264 7.80508 23.5506 8.21093 23.3974 8.58994C23.2442 8.96895 23.0166 9.31345 22.7282 9.60313L19.6657 12.6656Z" stroke="#49536E" stroke-width="2" stroke-linecap="round" stroke-linejoin="round"/>
<path d="M17.3465 15.5971L11.2214 21.7221C10.7892 22.1595 10.2484 22.4741 9.65454 22.6337C9.06064 22.7932 8.43499 22.7919 7.84176 22.6299L5.28239 23.7455C5.12277 23.8155 4.94588 23.8363 4.7744 23.8051C4.60291 23.7739 4.44464 23.6922 4.31989 23.5705V23.5705C4.22915 23.4812 4.16793 23.3662 4.14447 23.2411C4.121 23.116 4.13642 22.9866 4.18864 22.8705L5.36989 20.158C5.20789 19.5648 5.20659 18.9391 5.36612 18.3452C5.52565 17.7513 5.84026 17.2105 6.2777 16.7783L12.4027 10.6533" stroke="#49536E" stroke-width="2" stroke-linecap="round" stroke-linejoin="round"/>
</svg>
