<svg width="30" height="28" viewBox="0 0 30 28" fill="none" xmlns="http://www.w3.org/2000/svg">
<path d="M24.625 14.875C24.625 20.5078 16.4875 22.4437 15.175 22.7172C15.0594 22.7391 14.9406 22.7391 14.825 22.7172C13.5125 22.4437 5.375 20.5078 5.375 14.875V8.4875C5.37409 8.30741 5.42947 8.13153 5.5334 7.98446C5.63733 7.83738 5.78463 7.72645 5.95469 7.66719L14.7047 4.48437C14.8961 4.41854 15.1039 4.41854 15.2953 4.48437L24.0453 7.66719C24.2154 7.72645 24.3627 7.83738 24.4666 7.98446C24.5705 8.13153 24.6259 8.30741 24.625 8.4875V14.875Z" stroke="#49536E" stroke-width="2" stroke-linecap="round" stroke-linejoin="round"/>
<path d="M10.625 12.25H19.375" stroke="#49536E" stroke-width="2" stroke-linecap="round" stroke-linejoin="round"/>
<path d="M10.625 15.75H19.375" stroke="#49536E" stroke-width="2" stroke-linecap="round" stroke-linejoin="round"/>
<path d="M24.3408 16.625H25.5002C25.8453 16.6265 26.1873 16.5596 26.5064 16.4282C26.8256 16.2967 27.1155 16.1034 27.3596 15.8594C27.6036 15.6154 27.7969 15.3254 27.9283 15.0063C28.0597 14.6871 28.1266 14.3451 28.1252 14V11.375C28.1266 11.0299 28.0597 10.6879 27.9283 10.3688C27.7969 10.0496 27.6036 9.75968 27.3596 9.51564C27.1155 9.2716 26.8256 9.0783 26.5064 8.94689C26.1873 8.81549 25.8453 8.74858 25.5002 8.75002H24.6252" stroke="#49536E" stroke-width="2" stroke-linecap="round" stroke-linejoin="round"/>
<path d="M5.65937 16.625H4.5C4.15487 16.6265 3.81288 16.5596 3.49375 16.4282C3.17461 16.2967 2.88466 16.1034 2.64062 15.8594C2.39658 15.6154 2.20327 15.3254 2.07187 15.0063C1.94046 14.6871 1.87355 14.3451 1.875 14V11.375C1.87355 11.0299 1.94046 10.6879 2.07187 10.3688C2.20327 10.0496 2.39658 9.75968 2.64062 9.51564C2.88466 9.2716 3.17461 9.0783 3.49375 8.94689C3.81288 8.81549 4.15487 8.74858 4.5 8.75002H5.375" stroke="#49536E" stroke-width="2" stroke-linecap="round" stroke-linejoin="round"/>
</svg>
