<svg width="28" height="28" viewBox="0 0 28 28" fill="none" xmlns="http://www.w3.org/2000/svg">
<path fill-rule="evenodd" clip-rule="evenodd" d="M6.25 4.5V23.5H21.75V10.0392L16.2108 4.5H6.25ZM4.79917 3.04917C5.15081 2.69754 5.62772 2.5 6.125 2.5H16.625C16.8902 2.5 17.1446 2.60536 17.3321 2.79289L23.4571 8.91789C23.6446 9.10543 23.75 9.35978 23.75 9.625V23.625C23.75 24.1223 23.5525 24.5992 23.2008 24.9508C22.8492 25.3025 22.3723 25.5 21.875 25.5H6.125C5.62772 25.5 5.15081 25.3025 4.79917 24.9508C4.44754 24.5992 4.25 24.1223 4.25 23.625V4.375C4.25 3.87772 4.44754 3.40081 4.79917 3.04917Z" fill="#49536E"/>
<path fill-rule="evenodd" clip-rule="evenodd" d="M16.625 2.5C17.1773 2.5 17.625 2.94772 17.625 3.5V8.625H22.75C23.3023 8.625 23.75 9.07272 23.75 9.625C23.75 10.1773 23.3023 10.625 22.75 10.625H16.625C16.0727 10.625 15.625 10.1773 15.625 9.625V3.5C15.625 2.94772 16.0727 2.5 16.625 2.5Z" fill="#49536E"/>
<path fill-rule="evenodd" clip-rule="evenodd" d="M9.5 14.875C9.5 14.3227 9.94772 13.875 10.5 13.875H17.5C18.0523 13.875 18.5 14.3227 18.5 14.875C18.5 15.4273 18.0523 15.875 17.5 15.875H10.5C9.94772 15.875 9.5 15.4273 9.5 14.875Z" fill="#49536E"/>
<path fill-rule="evenodd" clip-rule="evenodd" d="M9.5 18.375C9.5 17.8227 9.94772 17.375 10.5 17.375H17.5C18.0523 17.375 18.5 17.8227 18.5 18.375C18.5 18.9273 18.0523 19.375 17.5 19.375H10.5C9.94772 19.375 9.5 18.9273 9.5 18.375Z" fill="#49536E"/>
</svg>
