<svg width="28" height="28" viewBox="0 0 28 28" fill="none" xmlns="http://www.w3.org/2000/svg">
<path fill-rule="evenodd" clip-rule="evenodd" d="M19.249 13C19.8013 12.9996 20.2494 13.4469 20.2498 13.9992C20.2527 17.5501 19.5623 21.0674 18.2175 24.3537C18.0084 24.8649 17.4244 25.1097 16.9133 24.9005C16.4021 24.6913 16.1573 24.1074 16.3665 23.5963C17.6127 20.5508 18.2525 17.2914 18.2498 14.0008C18.2494 13.4485 18.6967 13.0004 19.249 13Z" fill="#49536E"/>
<path fill-rule="evenodd" clip-rule="evenodd" d="M11.7705 8.15854C12.9536 7.70675 14.246 7.62504 15.4766 7.92424C16.7072 8.22344 17.8179 8.88943 18.6615 9.83399C19.0294 10.2459 18.9937 10.8781 18.5818 11.246C18.1699 11.6138 17.5377 11.5782 17.1699 11.1663C16.5962 10.524 15.8409 10.0711 15.0041 9.86763C14.1673 9.66417 13.2884 9.71973 12.4839 10.0269C11.6794 10.3342 10.9872 10.8785 10.499 11.588C10.011 12.2971 9.74979 13.1378 9.75006 13.9986C9.75682 16.837 9.03552 19.6298 7.65508 22.1099C7.38648 22.5925 6.77754 22.7659 6.29497 22.4973C5.8124 22.2287 5.63894 21.6198 5.90754 21.1372C7.12177 18.9557 7.75615 16.4992 7.75006 14.0026L7.75006 14.0007C7.74938 12.7342 8.13346 11.4974 8.85142 10.4542C9.56937 9.41088 10.5873 8.61032 11.7705 8.15854Z" fill="#49536E"/>
<path fill-rule="evenodd" clip-rule="evenodd" d="M13.9974 4.50003C12.9203 4.49721 11.8508 4.68102 10.8364 5.04333C10.3163 5.2291 9.74406 4.95806 9.55829 4.43796C9.37253 3.91785 9.64356 3.34563 10.1637 3.15986C11.3952 2.72 12.6936 2.49676 14.0013 2.50004C17.0509 2.50038 19.9754 3.71195 22.1318 5.86831C24.2884 8.02498 25.5 10.95 25.5 14V14.0005C25.4988 16.4287 25.2303 18.8493 24.6993 21.2187C24.5785 21.7577 24.0437 22.0966 23.5048 21.9758C22.9659 21.855 22.6269 21.3203 22.7477 20.7813C23.2466 18.5552 23.4989 16.2809 23.5 13.9995C23.4999 11.4802 22.499 9.064 20.7175 7.28252C18.9359 5.50093 16.5196 4.50004 14 4.50004H13.9974V4.50003Z" fill="#49536E"/>
<path fill-rule="evenodd" clip-rule="evenodd" d="M7.74668 5.51408C8.11429 5.92624 8.07818 6.55837 7.66601 6.92599C6.66929 7.81497 5.87193 8.90479 5.32634 10.1238C4.78075 11.3429 4.49927 12.6636 4.50039 13.9992L3.50039 14L4.50039 13.9982C4.50342 15.6527 4.14769 17.2882 3.45773 18.792C3.22741 19.294 2.63378 19.5142 2.13181 19.2839C1.62984 19.0536 1.40962 18.46 1.63993 17.958C2.20933 16.717 2.50289 15.3673 2.50039 14.0018L2.50039 14.0008C2.49904 12.3831 2.83998 10.7834 3.50083 9.30684C4.16168 7.83025 5.12748 6.5102 6.33477 5.43341C6.74693 5.0658 7.37907 5.10191 7.74668 5.51408Z" fill="#49536E"/>
<path fill-rule="evenodd" clip-rule="evenodd" d="M12.5107 21.8396C13.0135 22.0682 13.2358 22.661 13.0073 23.1638C12.7785 23.6672 12.524 24.1767 12.2433 24.668C11.9693 25.1475 11.3584 25.3141 10.8789 25.0401C10.3994 24.7661 10.2328 24.1553 10.5068 23.6757C10.7511 23.2483 10.9779 22.7953 11.1866 22.3362C11.4151 21.8334 12.0079 21.6111 12.5107 21.8396Z" fill="#49536E"/>
<path fill-rule="evenodd" clip-rule="evenodd" d="M13.9987 13C14.5509 12.9991 14.9993 13.4462 15.0002 13.9985C15.0031 15.8552 14.768 17.7046 14.3008 19.5016C14.1619 20.0361 13.6159 20.3568 13.0814 20.2178C12.5469 20.0789 12.2262 19.5329 12.3652 18.9984C12.7894 17.3667 13.0028 15.6874 13.0002 14.0015C12.9993 13.4493 13.4464 13.0009 13.9987 13Z" fill="#49536E"/>
</svg>
