<svg width="28" height="28" viewBox="0 0 28 28" fill="none" xmlns="http://www.w3.org/2000/svg">
<path d="M11.375 3.5V10.2594C11.374 10.4167 11.3325 10.5711 11.2547 10.7078L4.29844 22.3016C4.2195 22.4338 4.17686 22.5846 4.17485 22.7386C4.17284 22.8926 4.21151 23.0444 4.28698 23.1787C4.36244 23.313 4.47201 23.425 4.60462 23.5033C4.73722 23.5817 4.88817 23.6237 5.04219 23.625H22.9578C23.1118 23.6237 23.2628 23.5817 23.3954 23.5033C23.528 23.425 23.6376 23.313 23.713 23.1787C23.7885 23.0444 23.8272 22.8926 23.8252 22.7386C23.8231 22.5846 23.7805 22.4338 23.7016 22.3016L16.7453 10.7078C16.6675 10.5711 16.6261 10.4167 16.625 10.2594V3.5" stroke="#49536E" stroke-width="2" stroke-linecap="round" stroke-linejoin="round"/>
<path d="M9.625 3.5H18.375" stroke="#49536E" stroke-width="2" stroke-linecap="round" stroke-linejoin="round"/>
<path d="M6.84668 18.0468C8.1373 17.0953 10.3576 16.5593 13.9998 18.375C17.9045 20.3328 20.1795 19.5562 21.4264 18.4953" stroke="#49536E" stroke-width="2" stroke-linecap="round" stroke-linejoin="round"/>
</svg>
