<svg width="28" height="28" viewBox="0 0 28 28" fill="none" xmlns="http://www.w3.org/2000/svg">
<path d="M14.875 7.875V20.125" stroke="#49536E" stroke-width="2" stroke-linecap="round" stroke-linejoin="round"/>
<path d="M24.9375 7.875H19.6875V20.125" stroke="#49536E" stroke-width="2" stroke-linecap="round" stroke-linejoin="round"/>
<path d="M23.625 14H19.6875" stroke="#49536E" stroke-width="2" stroke-linecap="round" stroke-linejoin="round"/>
<path d="M7.87501 14H10.5V16.625C10.5 17.5533 10.1313 18.4435 9.47488 19.0999C8.8185 19.7563 7.92826 20.125 7.00001 20.125C6.07175 20.125 5.18151 19.7563 4.52513 19.0999C3.86876 18.4435 3.50001 17.5533 3.50001 16.625V11.375C3.49833 10.5219 3.80827 9.6976 4.37159 9.05695C4.93491 8.41631 5.71281 8.00346 6.5591 7.89599C7.40538 7.78853 8.26178 7.99385 8.96734 8.47336C9.6729 8.95288 10.179 9.67358 10.3906 10.5" stroke="#49536E" stroke-width="2" stroke-linecap="round" stroke-linejoin="round"/>
</svg>
