<svg width="28" height="28" viewBox="0 0 28 28" fill="none" xmlns="http://www.w3.org/2000/svg">
<path fill-rule="evenodd" clip-rule="evenodd" d="M15.9447 4.50051C15.7942 4.65314 15.6238 4.94913 15.4704 5.41067C15.3221 5.85671 15.2169 6.37334 15.1445 6.88125C15.1033 7.16959 15.0738 7.44729 15.0527 7.69709C15.3025 7.67595 15.5802 7.64644 15.8685 7.6053C16.3764 7.53283 16.8931 7.42764 17.3391 7.2794C17.8007 7.12599 18.0967 6.95553 18.2493 6.805C18.5538 6.49956 18.7249 6.08583 18.7249 5.65446C18.7249 5.22227 18.5532 4.80779 18.2476 4.50219C17.942 4.19659 17.5275 4.0249 17.0953 4.0249C16.6639 4.0249 16.2502 4.19596 15.9447 4.50051ZM18.9547 7.51382L19.1909 7.75H19.1888L18.9547 7.51382ZM20.7249 5.65446C20.7249 6.40999 20.4893 7.14124 20.0588 7.75H23.625C24.6605 7.75 25.5 8.58947 25.5 9.625V13.125C25.5 14.1185 24.7273 14.9316 23.75 14.9959V21.875C23.75 22.3723 23.5525 22.8492 23.2008 23.2008C22.8492 23.5525 22.3723 23.75 21.875 23.75H14H6.125C5.62772 23.75 5.15081 23.5525 4.79918 23.2008C4.44754 22.8492 4.25 22.3723 4.25 21.875V14.9959C3.27275 14.9316 2.5 14.1185 2.5 13.125V9.625C2.5 8.58947 3.33947 7.75 4.375 7.75H7.94142C7.51096 7.14124 7.27539 6.40999 7.27539 5.65446C7.27539 4.69184 7.65779 3.76865 8.33846 3.08797C9.01913 2.4073 9.94233 2.0249 10.9049 2.0249C11.8676 2.0249 12.7908 2.4073 13.4714 3.08797L13.4745 3.09109C13.682 3.30035 13.8549 3.54183 14.0001 3.7967C14.1453 3.54183 14.3183 3.30035 14.5257 3.0911L14.5288 3.08797C15.2095 2.4073 16.1327 2.0249 17.0953 2.0249C18.0579 2.0249 18.9811 2.4073 19.6618 3.08797C20.3425 3.76865 20.7249 4.69184 20.7249 5.65446ZM8.8094 7.75H8.81147L9.04557 7.51383L8.8094 7.75ZM4.5 9.75V13H5.25H13V9.75H4.5ZM15 9.75V13H22.75H23.5V9.75H15ZM13 15H6.25V21.75H13V15ZM15 21.75V15H21.75V21.75H15ZM10.6612 7.2794C10.1996 7.126 9.90362 6.95556 9.75099 6.80504C9.44645 6.4996 9.27539 6.08585 9.27539 5.65446C9.27539 5.22227 9.44707 4.80779 9.75268 4.50219C10.0583 4.19659 10.4728 4.0249 10.9049 4.0249C11.3363 4.0249 11.7501 4.19595 12.0555 4.5005C12.206 4.65313 12.3765 4.94912 12.5299 5.41067C12.6781 5.85671 12.7833 6.37334 12.8558 6.88125C12.8969 7.16959 12.9264 7.44729 12.9476 7.69709C12.6978 7.67595 12.4201 7.64644 12.1317 7.6053C11.6238 7.53283 11.1072 7.42764 10.6612 7.2794Z" fill="#49536E"/>
</svg>
