<svg width="28" height="28" viewBox="0 0 28 28" fill="none" xmlns="http://www.w3.org/2000/svg">
<path d="M14.6234 23.1766L23.4828 14.3172C25.6594 12.1297 25.9766 8.55315 23.9203 6.26722C23.4046 5.69115 22.7769 5.22627 22.0755 4.901C21.3741 4.57572 20.6137 4.39686 19.8408 4.37537C19.068 4.35387 18.2988 4.49018 17.5804 4.77597C16.862 5.06175 16.2094 5.49102 15.6625 6.03753L14 7.71097L12.5672 6.26722C10.3797 4.09065 6.80312 3.77347 4.51719 5.82972C3.94112 6.3454 3.47624 6.97313 3.15096 7.67454C2.82569 8.37596 2.64683 9.13633 2.62534 9.9092C2.60384 10.6821 2.74015 11.4512 3.02594 12.1696C3.31172 12.888 3.74099 13.5406 4.2875 14.0875L13.3766 23.1766C13.5425 23.3409 13.7665 23.4331 14 23.4331C14.2335 23.4331 14.4575 23.3409 14.6234 23.1766V23.1766Z" stroke="#49536E" stroke-width="2" stroke-linecap="round" stroke-linejoin="round"/>
<path d="M14 7.71094L12.25 9.625L15.75 13.125L14 14.875" stroke="#49536E" stroke-width="2" stroke-linecap="round" stroke-linejoin="round"/>
</svg>
