<svg width="28" height="28" viewBox="0 0 28 28" fill="none" xmlns="http://www.w3.org/2000/svg">
<path d="M6.48597 4.375H21.5141C21.6876 4.37529 21.8571 4.42716 22.0011 4.52401C22.145 4.62086 22.2569 4.75832 22.3226 4.91893C22.3882 5.07953 22.4046 5.25603 22.3697 5.42599C22.3349 5.59595 22.2502 5.75169 22.1266 5.87344L14 14L5.87347 5.87344C5.74984 5.75169 5.66521 5.59595 5.63031 5.42599C5.59541 5.25603 5.61183 5.07953 5.67748 4.91893C5.74313 4.75832 5.85504 4.62086 5.999 4.52401C6.14296 4.42716 6.31246 4.37529 6.48597 4.375V4.375Z" stroke="#49536E" stroke-width="2" stroke-linecap="round" stroke-linejoin="round"/>
<path d="M6.48597 23.625H21.5141C21.6876 23.6247 21.8571 23.5728 22.0011 23.476C22.145 23.3791 22.2569 23.2417 22.3226 23.0811C22.3882 22.9205 22.4046 22.744 22.3697 22.574C22.3349 22.4041 22.2502 22.2483 22.1266 22.1266L14 14L5.87347 22.1266C5.74984 22.2483 5.66521 22.4041 5.63031 22.574C5.59541 22.744 5.61183 22.9205 5.67748 23.0811C5.74313 23.2417 5.85504 23.3791 5.999 23.476C6.14296 23.5728 6.31246 23.6247 6.48597 23.625Z" stroke="#49536E" stroke-width="2" stroke-linecap="round" stroke-linejoin="round"/>
<path d="M19.25 19.25H8.75" stroke="#49536E" stroke-width="2" stroke-linecap="round" stroke-linejoin="round"/>
</svg>
