<svg width="28" height="28" viewBox="0 0 28 28" fill="none" xmlns="http://www.w3.org/2000/svg">
<path d="M9.625 25.375H18.375" stroke="#49536E" stroke-width="2" stroke-linecap="round" stroke-linejoin="round"/>
<path d="M14 21.875V15.75" stroke="#49536E" stroke-width="2" stroke-linecap="round" stroke-linejoin="round"/>
<path d="M10.5 12.25L14 15.75L17.5 12.25" stroke="#49536E" stroke-width="2" stroke-linecap="round" stroke-linejoin="round"/>
<path d="M8.60778 18.2656C7.56609 17.4557 6.7224 16.4192 6.14064 15.2348C5.55887 14.0505 5.25429 12.7492 5.24997 11.4297C5.2281 6.68281 9.04528 2.73438 13.7922 2.625C15.6293 2.58145 17.4335 3.11741 18.9489 4.15687C20.4643 5.19633 21.614 6.68652 22.2349 8.4161C22.8558 10.1457 22.9164 12.0268 22.4081 13.7928C21.8999 15.5587 20.8485 17.1198 19.4031 18.2547C19.0838 18.5015 18.8252 18.818 18.647 19.1801C18.4688 19.5422 18.3758 19.9402 18.375 20.3438V21C18.375 21.2321 18.2828 21.4546 18.1187 21.6187C17.9546 21.7828 17.732 21.875 17.5 21.875H10.5C10.2679 21.875 10.0453 21.7828 9.88125 21.6187C9.71716 21.4546 9.62497 21.2321 9.62497 21V20.3438C9.62223 19.9432 9.52938 19.5485 9.35329 19.1887C9.17721 18.829 8.92241 18.5135 8.60778 18.2656V18.2656Z" stroke="#49536E" stroke-width="2" stroke-linecap="round" stroke-linejoin="round"/>
</svg>
