<svg width="28" height="28" viewBox="0 0 28 28" fill="none" xmlns="http://www.w3.org/2000/svg">
<path fill-rule="evenodd" clip-rule="evenodd" d="M5.375 10.625V22.625H22.625V10.625H5.375ZM3.375 10.5C3.375 9.46447 4.21447 8.625 5.25 8.625H22.75C23.7855 8.625 24.625 9.46447 24.625 10.5V22.75C24.625 23.7855 23.7855 24.625 22.75 24.625H5.25C4.21447 24.625 3.375 23.7855 3.375 22.75V10.5Z" fill="#49536E"/>
<path fill-rule="evenodd" clip-rule="evenodd" d="M14 2.75C13.2209 2.75 12.4738 3.05949 11.9229 3.61037C11.372 4.16126 11.0625 4.90843 11.0625 5.6875V9.625C11.0625 10.1773 10.6148 10.625 10.0625 10.625C9.51022 10.625 9.0625 10.1773 9.0625 9.625V5.6875C9.0625 4.37799 9.5827 3.12212 10.5087 2.19616C11.4346 1.2702 12.6905 0.75 14 0.75C15.3095 0.75 16.5654 1.2702 17.4913 2.19616C18.4173 3.12212 18.9375 4.37799 18.9375 5.6875V9.625C18.9375 10.1773 18.4898 10.625 17.9375 10.625C17.3852 10.625 16.9375 10.1773 16.9375 9.625V5.6875C16.9375 4.90843 16.628 4.16126 16.0771 3.61037C15.5262 3.05949 14.7791 2.75 14 2.75Z" fill="#49536E"/>
</svg>
