<svg width="28" height="28" viewBox="0 0 28 28" fill="none" xmlns="http://www.w3.org/2000/svg">
<path d="M25.8 17.9C26 17.4 26.1 16.8 25.9 16.2C25.6 15.3 25 14.4 23.8 13.9C25.8 12.1 27 9.5 26.2 7C25.6 5.5 24.3 4.4 22.8 4.4C21.5 4.4 19.8 5.3 18.5 6.2C18 5.7 16.9 5 15.6 4.9V2.9C15.6 1.2 14.8 0 13.7 0C12.6 0 11.8 1.2 11.8 2.9V4.9C10.3 5 9.30005 5.7 8.80005 6.1C7.50005 5.2 5.80005 4.3 4.50005 4.3C3.00005 4.3 1.70005 5.3 1.20005 6.9C0.300048 9.4 1.60005 11.9 3.60005 13.8C2.40005 14.3 1.70005 15.3 1.50005 16.1C1.30005 16.8 1.30005 17.4 1.60005 17.8C1.00005 18.7 -0.499952 21.3 0.500048 22.7C1.30005 23.9 3.20005 23.6 4.70005 23.2C4.60005 23.6 4.80005 24 5.00005 24.4C5.50005 25.1 6.60005 26.1 8.80005 26.1H9.30005V26.6C9.30005 27.4 10 28 10.7 28C11.1 28 11.4 27.9 11.7 27.6C12 27.8 12.3 28 12.7 28C13.1 28 13.4 27.9 13.7 27.6C14 27.8 14.3 28 14.7 28C15.1 28 15.4 27.9 15.7 27.6C16 27.8 16.3 28 16.7 28C17.5 28 18.1 27.3 18.1 26.6V26.1H18.6C20.8 26.1 21.9 25.2 22.4 24.4C22.7 24 22.8 23.6 22.9 23.3C24.4 23.6 26.3 23.9 27.1 22.8C27.9 21.3 26.4 18.8 25.8 17.9ZM25 16.4C25.1 16.9 25.1 17.3 24.9 17.5C24 18.4 21.2 18.3 19.2 17C17.9 16.1 17.5 15 17.5 14.2C18 13.6 18 12.8 17.7 12.2C19 11.2 20.3 10.4 21.4 9.8C22.8 9.1 23.5 9.1 23.7 9.3C23.9 9.4 23.9 9.8 23.8 10.4C23.7 11 23.4 11.8 22.9 12.7C22.5 12 21.7 11.6 20.9 11.6C19.6 11.6 18.5 12.7 18.5 14C18.5 15.3 19.6 16.4 20.9 16.4C22 16.4 23 15.6 23.2 14.6C24.2 15 24.8 15.8 25 16.4ZM13.6 7.2C14.5 7.2 15.2 6.6 15.5 5.8C16.4 5.9 17.2 6.4 17.7 6.7C16.6 7.5 15.6 8.2 15.1 8.5C14.2 7.9 13 7.9 12.2 8.5C11.7 8.1 10.7 7.4 9.60005 6.7C10.1 6.4 10.8 5.9 11.8 5.8C12 6.6 12.7 7.2 13.6 7.2ZM16 12.2C16.2 12.2 16.5 12.3 16.6 12.5C16.9 12.8 16.9 13.4 16.6 13.7C16.4 13.9 16.2 14 16 14C15.8 14 15.5 13.9 15.4 13.7C15.1 13.4 15.1 12.8 15.4 12.5C15.6 12.2 15.8 12.2 16 12.2ZM12.5 9.5C12.8 9.2 13.2 9 13.6 9C14 9 14.4 9.2 14.7 9.5C15.3 10.1 15.3 11.1 14.7 11.7C14.1 12.3 13.1 12.3 12.5 11.7C11.9 11.1 11.9 10.1 12.5 9.5ZM11.8 12.4C12.1 12.7 12.1 13.3 11.8 13.6C11.6 13.8 11.4 13.9 11.2 13.9C11 13.9 10.7 13.8 10.6 13.6C10.3 13.3 10.3 12.7 10.6 12.4C10.8 12.2 11 12.1 11.2 12.1C11.4 12.2 11.7 12.2 11.8 12.4ZM10.7 14.8C10.9 14.9 11.1 14.9 11.3 14.9C11.8 14.9 12.3 14.7 12.6 14.4C12.9 14.1 13.1 13.6 13.1 13.1C13.3 13.1 13.5 13.2 13.7 13.2C13.9 13.2 14.1 13.2 14.3 13.1C14.3 13.6 14.5 14 14.8 14.4C15.1 14.7 15.6 14.9 16.1 14.9C16.3 14.9 16.5 14.9 16.7 14.8C16.8 15.3 17 15.8 17.3 16.3C16.4 16.1 15.2 15.9 13.7 15.9C12.2 15.9 11 16.1 10.1 16.3C10.3 15.8 10.6 15.3 10.7 14.8ZM22.3 14C22.3 14.8 21.6 15.4 20.9 15.4C20.2 15.4 19.5 14.7 19.5 14C19.5 13.3 20.2 12.6 20.9 12.6C21.6 12.6 22.3 13.2 22.3 14ZM25.2 7.3C25.7 8.6 25.4 10.1 24.4 11.6C24.9 10.1 24.9 9.1 24.3 8.6C23.7 8.1 22.5 8.2 20.9 9C19.8 9.6 18.4 10.5 17 11.5C16.7 11.3 16.4 11.2 16.1 11.2C16.3 10.6 16.1 9.9 15.8 9.3C16.4 8.9 17.6 8 18.8 7.2C20.5 6 22 5.4 22.9 5.4C23.8 5.3 24.8 6.1 25.2 7.3ZM12.7 2.9C12.7 1.7 13.2 1 13.7 1C14.2 1 14.7 1.7 14.7 2.9V5.3C14.7 5.8 14.3 6.3 13.7 6.3C13.1 6.3 12.7 5.9 12.7 5.3V4.8V2.9ZM2.00005 7.3C2.40005 6.1 3.40005 5.4 4.40005 5.4C5.30005 5.4 6.80005 6.1 8.50005 7.2C9.70005 8 10.9 8.9 11.5 9.3C11.1 9.9 11 10.6 11.2 11.2C10.9 11.2 10.6 11.3 10.3 11.5C8.90005 10.4 7.50005 9.5 6.40005 9C4.70005 8.1 3.60005 8 2.90005 8.5C2.30005 9 2.30005 10 2.80005 11.5C1.80005 10.1 1.50005 8.6 2.00005 7.3ZM2.30005 16.4C2.50005 15.7 3.10005 15 4.10005 14.6C4.40005 15.6 5.30005 16.4 6.40005 16.4C7.70005 16.4 8.80005 15.3 8.80005 14C8.80005 12.7 7.70005 11.6 6.40005 11.6C5.50005 11.6 4.80005 12.1 4.40005 12.7C4.00005 11.8 3.70005 11 3.50005 10.4C3.40005 9.8 3.40005 9.4 3.60005 9.3C3.80005 9.1 4.60005 9.2 5.90005 9.8C7.00005 10.3 8.30005 11.2 9.60005 12.2C9.30005 12.8 9.30005 13.6 9.80005 14.2C9.70005 15 9.40005 16.1 8.00005 17C6.10005 18.3 3.20005 18.4 2.30005 17.5C2.20005 17.3 2.20005 16.9 2.30005 16.4ZM4.90005 14C4.90005 13.2 5.60005 12.6 6.30005 12.6C7.00005 12.6 7.70005 13.3 7.70005 14C7.70005 14.8 7.00005 15.4 6.30005 15.4C5.60005 15.4 4.90005 14.8 4.90005 14ZM10.7 27C10.4 27 10.2 26.8 10.2 26.5V26H11.2V26.5C11.2 26.8 11 27 10.7 27ZM12.7 27C12.4 27 12.2 26.8 12.2 26.5V26H13.2V26.5C13.1 26.8 12.9 27 12.7 27ZM14.6 27C14.3 27 14.1 26.8 14.1 26.5V26H15.1V26.5C15.1 26.8 14.9 27 14.6 27ZM17 26.6C17 26.9 16.8 27.1 16.5 27.1C16.2 27.1 16 26.9 16 26.6V26.1H17V26.6ZM18.5 25.1H8.80005C7.40005 25.1 6.40005 24.7 5.80005 23.9C5.60005 23.6 5.50005 23.3 5.40005 23C6.10005 22.8 6.80005 22.4 7.50005 22.1C7.70005 22 7.80005 21.9 8.00005 21.8C8.40005 22.6 9.40005 23.6 11.2 23.6H16C17.8 23.6 18.7 22.6 19.2 21.8C19.4 21.9 19.5 22 19.7 22.1C20.4 22.5 21.1 22.8 21.8 23C21.8 23.2 21.6 23.5 21.4 23.8C20.9 24.7 19.9 25.1 18.5 25.1ZM8.90005 21.4C10.2 20.8 11.8 20.3 13.6 20.3C15.4 20.3 17 20.8 18.3 21.4C18.1 21.9 17.4 22.7 16 22.7H11.2C9.80005 22.7 9.20005 21.9 8.90005 21.4ZM26.1 22.2C25.9 22.5 25.1 23 22.4 22.2C21.7 22 21 21.6 20.1 21.2C19.8 21 19.4 20.9 19.1 20.7C17.6 20 15.8 19.3 13.6 19.3C11.4 19.3 9.60005 20 8.10005 20.7C7.80005 20.9 7.40005 21 7.10005 21.2C6.20005 21.6 5.50005 22 4.80005 22.2C2.10005 22.9 1.30005 22.5 1.10005 22.2C0.600048 21.5 1.50005 19.6 2.10005 18.5C3.90005 19.5 6.80005 18.9 8.50005 17.7C8.70005 17.6 10.6 16.8 13.6 16.8C16.6 16.8 18.5 17.6 18.7 17.7C20.4 18.8 23.3 19.5 25.1 18.5C25.8 19.6 26.7 21.5 26.1 22.2Z" fill="#949494"/>
</svg>
