<svg width="28" height="28" viewBox="0 0 28 28" fill="none" xmlns="http://www.w3.org/2000/svg">
<path d="M25.6257 18C26.5257 17.1 25.6257 14.5 23.1257 14C28.6257 9.5 26.1257 4.5 23.1257 4.5C21.8257 4.5 20.0257 5.6 18.6257 6.5C18.6257 6.5 17.1257 5 15.1257 5V2.5C15.1257 1 14.4257 0 13.6257 0C12.8257 0 12.1257 1 12.1257 2.5V5C10.1257 5 8.62571 6.5 8.62571 6.5C7.22571 5.6 5.42571 4.5 4.12571 4.5C1.12571 4.5 -1.37429 9.5 4.12571 14C1.62571 14.5 0.725714 17.1 1.62571 18C1.62571 18 -3.57429 25.3 4.62571 23C4.62571 23 4.62571 26 8.62571 26H9.62571V27C9.62571 27.5 10.0257 28 10.6257 28C11.2257 28 11.6257 27.5 11.6257 27C11.6257 27.5 12.0257 28 12.6257 28C13.2257 28 13.6257 27.5 13.6257 27C13.6257 27.5 14.0257 28 14.6257 28C15.2257 28 15.6257 27.5 15.6257 27C15.6257 27.5 16.0257 28 16.6257 28C17.2257 28 17.6257 27.5 17.6257 27V26H18.6257C22.6257 26 22.6257 23 22.6257 23C30.8257 25.2 25.6257 18 25.6257 18Z" fill="#FFF0CF"/>
<path d="M12.1258 12C11.5258 11.4 10.7258 11.4 10.1258 12C5.62578 8.5 -0.37422 5.5 4.12578 14C-1.37422 9.5 1.12578 4.5 4.12578 4.5C5.42578 4.5 7.22578 5.6 8.62578 6.5C10.4258 7.8 12.1258 9 12.1258 9C11.3258 9.8 11.3258 11.1 12.1258 12Z" fill="#FFF0BC"/>
<path d="M10.1258 13.9999C10.1258 15.1999 9.52585 16.4999 8.12585 17.4999C6.02585 18.8999 2.82585 19.1999 1.62585 17.9999C0.725848 17.0999 1.62585 14.4999 4.12585 13.9999C-0.374152 5.4999 5.62585 8.4999 10.1258 11.9999C9.52585 12.4999 9.52585 13.3999 10.1258 13.9999Z" fill="#0B2A84"/>
<path d="M22.6257 23C21.5257 22.7 20.4257 22.1 19.1257 21.4C17.5257 20.7 15.8257 20 13.6257 20C11.4257 20 9.72571 20.7 8.12571 21.4C6.82571 22 5.72571 22.7 4.62571 23C-3.57429 25.3 1.62571 18 1.62571 18C2.82571 19.2 6.02571 18.9 8.12571 17.5C8.22571 17.5 10.2257 16.5 13.6257 16.5C17.0257 16.5 19.0257 17.5 19.1257 17.5C21.2257 18.9 24.4257 19.2 25.6257 18C25.6257 18 30.8257 25.2 22.6257 23Z" fill="#FFD270"/>
<path d="M19.126 21.4C19.126 21.4 18.626 23.5 16.126 23.5H11.126C8.62598 23.5 8.12598 21.4 8.12598 21.4C9.72598 20.7 11.426 20 13.626 20C15.826 20 17.526 20.7 19.126 21.4Z" fill="#0B2A84"/>
<path d="M22.626 22.9999C22.626 22.9999 22.626 25.9999 18.626 25.9999H8.62598C4.62598 25.9999 4.62598 22.9999 4.62598 22.9999C5.72598 22.6999 6.82598 22.0999 8.12598 21.3999C8.12598 21.3999 8.62598 23.4999 11.126 23.4999H16.126C18.626 23.4999 19.126 21.3999 19.126 21.3999C20.426 21.9999 21.526 22.6999 22.626 22.9999Z" fill="#BF870C"/>
<path d="M13.626 26V27C13.626 27.5 13.226 28 12.626 28C12.026 28 11.626 27.5 11.626 27V26H13.626ZM11.626 26V27C11.626 27.5 11.226 28 10.626 28C10.026 28 9.62598 27.5 9.62598 27V26H11.626ZM17.626 26V27C17.626 27.5 17.226 28 16.626 28C16.026 28 15.626 27.5 15.626 27V26H17.626ZM15.626 26V27C15.626 27.5 15.226 28 14.626 28C14.026 28 13.626 27.5 13.626 27V26H15.626Z" fill="#F37028"/>
<path d="M23.126 14C27.626 5.5 21.626 8.5 17.126 12C16.526 11.4 15.726 11.4 15.126 12C15.926 11.2 15.926 9.8 15.126 9C15.126 9 16.826 7.8 18.626 6.5C20.026 5.6 21.826 4.5 23.126 4.5C26.126 4.5 28.626 9.5 23.126 14Z" fill="#FFF0BC"/>
<path d="M19.126 17.5C19.026 17.5 17.026 16.5 13.626 16.5C10.226 16.5 8.22598 17.5 8.12598 17.5C9.52598 16.5 10.126 15.2 10.126 14C10.726 14.5 11.526 14.5 12.126 14C12.726 13.5 12.726 12.5 12.126 12C12.926 12.8 14.326 12.8 15.126 12C14.526 12.5 14.526 13.4 15.126 14C15.726 14.5 16.526 14.5 17.126 14C17.126 15.2 17.726 16.5 19.126 17.5ZM18.626 6.5C16.826 7.8 15.126 9 15.126 9C14.326 8.2 12.926 8.2 12.126 9C12.126 9 10.426 7.8 8.62598 6.5C8.62598 6.5 10.126 5 12.126 5C12.126 5.8 12.826 6.5 13.626 6.5C14.426 6.5 15.126 5.8 15.126 5C17.126 5 18.626 6.5 18.626 6.5Z" fill="#FFB410"/>
<path d="M15.1258 2.5V5C15.1258 5.8 14.4258 6.5 13.6258 6.5C12.8258 6.5 12.1258 5.8 12.1258 5V2.5C12.1258 1 12.8258 0 13.6258 0C14.4258 0 15.1258 1 15.1258 2.5ZM10.1258 14C10.1258 15.2 9.52585 16.5 8.12585 17.5C6.02585 18.9 2.82585 19.2 1.62585 18C0.725848 17.1 1.62585 14.5 4.12585 14C1.12585 7.5 5.62585 10 10.1258 12C9.52585 12.5 9.52585 13.4 10.1258 14Z" fill="#21409A"/>
<path d="M6.12598 16.5C7.23055 16.5 8.12598 15.6046 8.12598 14.5C8.12598 13.3954 7.23055 12.5 6.12598 12.5C5.02141 12.5 4.12598 13.3954 4.12598 14.5C4.12598 15.6046 5.02141 16.5 6.12598 16.5Z" fill="#0B2A84"/>
<path d="M6.12598 16C7.23055 16 8.12598 15.1046 8.12598 14C8.12598 12.8954 7.23055 12 6.12598 12C5.02141 12 4.12598 12.8954 4.12598 14C4.12598 15.1046 5.02141 16 6.12598 16Z" fill="#FFF0CF"/>
<path d="M17.126 13.9999C17.126 15.1999 17.726 16.4999 19.126 17.4999C21.226 18.8999 24.426 19.1999 25.626 17.9999C26.526 17.0999 25.626 14.4999 23.126 13.9999C27.626 5.4999 21.626 8.4999 17.126 11.9999C17.726 12.4999 17.726 13.3999 17.126 13.9999Z" fill="#0B2A84"/>
<path d="M17.126 13.9998C17.126 15.1998 17.726 16.4998 19.126 17.4998C21.226 18.8998 24.426 19.1998 25.626 17.9998C26.526 17.0998 25.626 14.4998 23.126 13.9998C26.126 7.4998 21.626 9.9998 17.126 11.9998C17.726 12.4998 17.726 13.3998 17.126 13.9998Z" fill="#21409A"/>
<path d="M21.126 16.5C22.2305 16.5 23.126 15.6046 23.126 14.5C23.126 13.3954 22.2305 12.5 21.126 12.5C20.0214 12.5 19.126 13.3954 19.126 14.5C19.126 15.6046 20.0214 16.5 21.126 16.5Z" fill="#0B2A84"/>
<path d="M21.126 16C22.2305 16 23.126 15.1046 23.126 14C23.126 12.8954 22.2305 12 21.126 12C20.0214 12 19.126 12.8954 19.126 14C19.126 15.1046 20.0214 16 21.126 16Z" fill="#FFF0CF"/>
<path d="M22.6257 23C21.5257 22.7 20.4257 22.1 19.1257 21.4C17.5257 20.7 15.8257 20 13.6257 20C11.4257 20 9.72571 20.7 8.12571 21.4C6.82571 22 5.72571 22.7 4.62571 23C-3.57429 25.3 1.62571 18 1.62571 18C2.62571 20.5 6.02571 18.9 8.12571 17.5C8.22571 17.5 10.2257 16.5 13.6257 16.5C17.0257 16.5 19.0257 17.5 19.1257 17.5C21.2257 18.9 24.1257 20.5 25.6257 18C25.6257 18 30.8257 25.2 22.6257 23Z" fill="#FFF0BC"/>
<path d="M19.126 21.3999C19.126 21.3999 18.626 23.4999 16.126 23.4999H11.126C8.62598 23.4999 8.12598 21.3999 8.12598 21.3999C9.72598 20.6999 11.426 20.9999 13.626 20.9999C15.826 20.9999 17.526 20.6999 19.126 21.3999Z" fill="#21409A"/>
<path d="M9.62598 26H17.626V26.5H9.62598V26Z" fill="#F25B0F"/>
<path d="M11.1256 15.0002C11.8988 15.0002 12.5256 14.3734 12.5256 13.6002C12.5256 12.827 11.8988 12.2002 11.1256 12.2002C10.3524 12.2002 9.72559 12.827 9.72559 13.6002C9.72559 14.3734 10.3524 15.0002 11.1256 15.0002Z" fill="#BF870C"/>
<path d="M13.6254 13.2C14.7852 13.2 15.7254 12.2598 15.7254 11.1C15.7254 9.9402 14.7852 9 13.6254 9C12.4656 9 11.5254 9.9402 11.5254 11.1C11.5254 12.2598 12.4656 13.2 13.6254 13.2Z" fill="#BF870C"/>
<path d="M16.1256 15.0002C16.8988 15.0002 17.5256 14.3734 17.5256 13.6002C17.5256 12.827 16.8988 12.2002 16.1256 12.2002C15.3524 12.2002 14.7256 12.827 14.7256 13.6002C14.7256 14.3734 15.3524 15.0002 16.1256 15.0002Z" fill="#BF870C"/>
<path d="M11.1256 14.4001C11.8988 14.4001 12.5256 13.7733 12.5256 13.0001C12.5256 12.2269 11.8988 11.6001 11.1256 11.6001C10.3524 11.6001 9.72559 12.2269 9.72559 13.0001C9.72559 13.7733 10.3524 14.4001 11.1256 14.4001Z" fill="#F37028"/>
<path d="M16.1256 14.4001C16.8988 14.4001 17.5256 13.7733 17.5256 13.0001C17.5256 12.2269 16.8988 11.6001 16.1256 11.6001C15.3524 11.6001 14.7256 12.2269 14.7256 13.0001C14.7256 13.7733 15.3524 14.4001 16.1256 14.4001Z" fill="#F37028"/>
<path d="M13.6254 12.5999C14.7852 12.5999 15.7254 11.6597 15.7254 10.4999C15.7254 9.3401 14.7852 8.3999 13.6254 8.3999C12.4656 8.3999 11.5254 9.3401 11.5254 10.4999C11.5254 11.6597 12.4656 12.5999 13.6254 12.5999Z" fill="#21409A"/>
<path d="M22.626 22.9999C22.626 22.9999 22.626 25.9999 18.626 25.9999H8.62598C4.62598 25.9999 4.62598 22.9999 4.62598 22.9999C5.62598 23.4999 7.62598 22.9999 8.12598 21.3999C8.12598 21.3999 8.62598 23.4999 11.126 23.4999H16.126C18.626 23.4999 19.126 21.3999 19.126 21.3999C19.626 22.9999 21.126 23.4999 22.626 22.9999Z" fill="#FFB410"/>
</svg>
