<svg width="28" height="28" viewBox="0 0 28 28" fill="none" xmlns="http://www.w3.org/2000/svg">
<path d="M3.5 5.5453V20.7047C3.49986 20.8402 3.5312 20.9739 3.59156 21.0953C3.65192 21.2166 3.73964 21.3223 3.84781 21.4039C3.95598 21.4856 4.08165 21.541 4.21489 21.5658C4.34813 21.5906 4.48532 21.5841 4.61563 21.5469L23.8656 15.9359C24.0486 15.8836 24.2094 15.7731 24.3239 15.6211C24.4384 15.4691 24.5002 15.284 24.5 15.0937V11.1562C24.5002 10.966 24.4384 10.7808 24.3239 10.6289C24.2094 10.4769 24.0486 10.3664 23.8656 10.314L4.61563 4.70311C4.48532 4.66584 4.34813 4.65935 4.21489 4.68415C4.08165 4.70895 3.95598 4.76436 3.84781 4.84602C3.73964 4.92768 3.65192 5.03335 3.59156 5.1547C3.5312 5.27605 3.49986 5.40976 3.5 5.5453Z" stroke="#49536E" stroke-width="2" stroke-linecap="round" stroke-linejoin="round"/>
<path d="M20.125 17.0297V21C20.125 21.2321 20.0328 21.4546 19.8687 21.6187C19.7046 21.7828 19.4821 21.875 19.25 21.875H15.75C15.5179 21.875 15.2954 21.7828 15.1313 21.6187C14.9672 21.4546 14.875 21.2321 14.875 21V7.68909" stroke="#49536E" stroke-width="2" stroke-linecap="round" stroke-linejoin="round"/>
</svg>
