<svg width="28" height="28" viewBox="0 0 28 28" fill="none" xmlns="http://www.w3.org/2000/svg">
<path fill-rule="evenodd" clip-rule="evenodd" d="M19.2504 6H8.74963H8.74959H2.625C1.58947 6 0.75 6.83947 0.75 7.875V13.1254V13.1254V14.8746C0.75 14.8746 0.75 14.8746 0.75 14.8746V20.125C0.75 21.1605 1.58947 22 2.625 22H8.74227C8.74716 22 8.75206 22 8.75695 22H19.2431H19.2578H25.375C26.4105 22 27.25 21.1605 27.25 20.125V14.8819V14.8673V13.1328V13.1181V7.875C27.25 6.83947 26.4105 6 25.375 6H19.2504H19.2504ZM9.12573 20H18.8743L25.25 14.4213V13.5788L18.8743 8H9.12576L2.75 13.5788V14.4212L9.12573 20ZM2.75 17.0788V20H6.08855L2.75 17.0788ZM2.75 10.9213L6.08858 8H2.75V10.9213ZM25.25 17.0788V20H21.9115L25.25 17.0788ZM25.25 8H21.9114L25.25 10.9212V8ZM11.5 14C11.5 12.6193 12.6193 11.5 14 11.5C15.3807 11.5 16.5 12.6193 16.5 14C16.5 15.3807 15.3807 16.5 14 16.5C12.6193 16.5 11.5 15.3807 11.5 14ZM14 9.5C11.5147 9.5 9.5 11.5147 9.5 14C9.5 16.4853 11.5147 18.5 14 18.5C16.4853 18.5 18.5 16.4853 18.5 14C18.5 11.5147 16.4853 9.5 14 9.5Z" fill="#214099"/>
</svg>
