<svg width="28" height="28" viewBox="0 0 28 28" fill="none" xmlns="http://www.w3.org/2000/svg">
<path fill-rule="evenodd" clip-rule="evenodd" d="M5.375 22.625V5.375H22.625V16H17C16.4477 16 16 16.4477 16 17V22.625H5.375ZM18 21.7108L21.7108 18H18V21.7108ZM5.25 24.625H17.1383L24.625 17.1383V5.25C24.625 4.75272 24.4275 4.27581 24.0758 3.92417C23.7242 3.57254 23.2473 3.375 22.75 3.375H5.25C4.75272 3.375 4.27581 3.57254 3.92417 3.92417C3.57254 4.27581 3.375 4.75272 3.375 5.25V22.75C3.375 23.2473 3.57254 23.7242 3.92417 24.0758C4.27581 24.4275 4.75272 24.625 5.25 24.625ZM17.2071 8.66789C17.5976 9.05842 17.5976 9.69158 17.2071 10.0821L15.2892 12L17.2071 13.9179C17.5976 14.3084 17.5976 14.9416 17.2071 15.3321C16.8166 15.7226 16.1834 15.7226 15.7929 15.3321L13.875 13.4142L11.9571 15.3321C11.5666 15.7226 10.9334 15.7226 10.5429 15.3321C10.1524 14.9416 10.1524 14.3084 10.5429 13.9179L12.4608 12L10.5429 10.0821C10.1524 9.69158 10.1524 9.05842 10.5429 8.66789C10.9334 8.27737 11.5666 8.27737 11.9571 8.66789L13.875 10.5858L15.7929 8.66789C16.1834 8.27737 16.8166 8.27737 17.2071 8.66789Z" fill="#49536E"/>
</svg>
