<svg width="28" height="28" viewBox="0 0 28 28" fill="none" xmlns="http://www.w3.org/2000/svg">
<path fill-rule="evenodd" clip-rule="evenodd" d="M9.75 2.625C9.75 2.07272 9.30228 1.625 8.75 1.625C8.19772 1.625 7.75 2.07272 7.75 2.625V3.375H6.125C5.62772 3.375 5.15081 3.57254 4.79917 3.92418C4.44754 4.27581 4.25 4.75272 4.25 5.25V21.875C4.25 22.8364 4.63192 23.7584 5.31174 24.4383C5.99156 25.1181 6.91359 25.5 7.875 25.5H20.125C21.0864 25.5 22.0084 25.1181 22.6883 24.4383C23.3681 23.7584 23.75 22.8364 23.75 21.875V5.25C23.75 4.75272 23.5525 4.27581 23.2008 3.92418C22.8492 3.57254 22.3723 3.375 21.875 3.375H20.25V2.625C20.25 2.07272 19.8023 1.625 19.25 1.625C18.6977 1.625 18.25 2.07272 18.25 2.625V3.375H15V2.625C15 2.07272 14.5523 1.625 14 1.625C13.4477 1.625 13 2.07272 13 2.625V3.375H9.75V2.625ZM18.25 5.375H15V6.125C15 6.67728 14.5523 7.125 14 7.125C13.4477 7.125 13 6.67728 13 6.125V5.375H9.75V6.125C9.75 6.67728 9.30228 7.125 8.75 7.125C8.19772 7.125 7.75 6.67728 7.75 6.125V5.375H6.25V21.875C6.25 22.306 6.42121 22.7193 6.72595 23.024C7.0307 23.3288 7.44402 23.5 7.875 23.5H20.125C20.556 23.5 20.9693 23.3288 21.274 23.024C21.5788 22.7193 21.75 22.306 21.75 21.875V5.375H20.25V6.125C20.25 6.67728 19.8023 7.125 19.25 7.125C18.6977 7.125 18.25 6.67728 18.25 6.125V5.375ZM10.5 13C9.94772 13 9.5 13.4477 9.5 14C9.5 14.5523 9.94772 15 10.5 15H17.5C18.0523 15 18.5 14.5523 18.5 14C18.5 13.4477 18.0523 13 17.5 13H10.5ZM10.5 16.5C9.94772 16.5 9.5 16.9477 9.5 17.5C9.5 18.0523 9.94772 18.5 10.5 18.5H17.5C18.0523 18.5 18.5 18.0523 18.5 17.5C18.5 16.9477 18.0523 16.5 17.5 16.5H10.5Z" fill="#49536E"/>
</svg>
