<svg width="28" height="28" viewBox="0 0 28 28" fill="none" xmlns="http://www.w3.org/2000/svg">
<path fill-rule="evenodd" clip-rule="evenodd" d="M5.375 5.375V22.625H16V17C16 16.4477 16.4477 16 17 16H22.625V5.375H5.375ZM21.7108 18H18V21.7108L21.7108 18ZM17.1383 24.625H5.25C4.75272 24.625 4.27581 24.4275 3.92417 24.0758C3.57254 23.7242 3.375 23.2473 3.375 22.75V5.25C3.375 4.75272 3.57254 4.27581 3.92417 3.92417C4.27581 3.57254 4.75272 3.375 5.25 3.375H22.75C23.2473 3.375 23.7242 3.57254 24.0758 3.92417C24.4275 4.27581 24.625 4.75272 24.625 5.25V17.1383L17.1383 24.625ZM9.5 10.5C9.5 9.94772 9.94772 9.5 10.5 9.5H17.5C18.0523 9.5 18.5 9.94772 18.5 10.5C18.5 11.0523 18.0523 11.5 17.5 11.5H10.5C9.94772 11.5 9.5 11.0523 9.5 10.5ZM9.5 14C9.5 13.4477 9.94772 13 10.5 13H17.5C18.0523 13 18.5 13.4477 18.5 14C18.5 14.5523 18.0523 15 17.5 15H10.5C9.94772 15 9.5 14.5523 9.5 14ZM10.5 16.5C9.94772 16.5 9.5 16.9477 9.5 17.5C9.5 18.0523 9.94772 18.5 10.5 18.5H14C14.5523 18.5 15 18.0523 15 17.5C15 16.9477 14.5523 16.5 14 16.5H10.5Z" fill="#49536E"/>
</svg>
