<svg width="28" height="28" viewBox="0 0 28 28" fill="none" xmlns="http://www.w3.org/2000/svg">
<path fill-rule="evenodd" clip-rule="evenodd" d="M5.375 5.375V22.625H16V17C16 16.4477 16.4477 16 17 16H22.625V5.375H5.375ZM21.7108 18L18 21.7108V18H21.7108ZM17.1383 24.625H5.25C4.75272 24.625 4.27581 24.4275 3.92417 24.0758C3.57254 23.7242 3.375 23.2473 3.375 22.75V5.25C3.375 4.75272 3.57254 4.27581 3.92417 3.92417C4.27581 3.57254 4.75272 3.375 5.25 3.375H22.75C23.2473 3.375 23.7242 3.57254 24.0758 3.92417C24.4275 4.27581 24.625 4.75272 24.625 5.25V17.1383L17.1383 24.625ZM19.7071 10.7071C20.0976 10.3166 20.0976 9.68342 19.7071 9.29289C19.3166 8.90237 18.6834 8.90237 18.2929 9.29289L13 14.5858L10.7071 12.2929C10.3166 11.9024 9.68342 11.9024 9.29289 12.2929C8.90237 12.6834 8.90237 13.3166 9.29289 13.7071L12.2929 16.7071C12.6834 17.0976 13.3166 17.0976 13.7071 16.7071L19.7071 10.7071Z" fill="#49536E"/>
</svg>
