<svg width="28" height="28" viewBox="0 0 28 28" fill="none" xmlns="http://www.w3.org/2000/svg">
<path d="M14 24.5C19.799 24.5 24.5 19.799 24.5 14C24.5 8.20101 19.799 3.5 14 3.5C8.20101 3.5 3.5 8.20101 3.5 14C3.5 19.799 8.20101 24.5 14 24.5Z" stroke="#49536E" stroke-width="2" stroke-miterlimit="10"/>
<path d="M11.5828 10.3578C11.8187 9.80071 12.2398 9.34221 12.7749 9.05985C13.3099 8.77749 13.9261 8.68861 14.5191 8.80825C15.1121 8.92789 15.6456 9.24869 16.0294 9.7164C16.4131 10.1841 16.6235 10.77 16.625 11.375C16.6274 11.8977 16.471 12.4087 16.1766 12.8406V12.8406L11.375 19.25H16.625" stroke="#49536E" stroke-width="2" stroke-linecap="round" stroke-linejoin="round"/>
</svg>
