<svg width="28" height="28" viewBox="0 0 28 28" fill="none" xmlns="http://www.w3.org/2000/svg">
<path d="M22.75 4.375H5.25C4.76675 4.375 4.375 4.76675 4.375 5.25V22.75C4.375 23.2332 4.76675 23.625 5.25 23.625H22.75C23.2332 23.625 23.625 23.2332 23.625 22.75V5.25C23.625 4.76675 23.2332 4.375 22.75 4.375Z" stroke="#49536E" stroke-width="2" stroke-linecap="round" stroke-linejoin="round"/>
<path d="M11.5828 10.3578C11.8187 9.80071 12.2398 9.34221 12.7749 9.05985C13.3099 8.77749 13.9261 8.68861 14.5191 8.80825C15.1121 8.92789 15.6456 9.24869 16.0294 9.7164C16.4131 10.1841 16.6235 10.77 16.625 11.375C16.6274 11.8977 16.471 12.4087 16.1766 12.8406V12.8406L11.375 19.25H16.625" stroke="#49536E" stroke-width="2" stroke-linecap="round" stroke-linejoin="round"/>
</svg>
