<svg width="28" height="28" viewBox="0 0 28 28" fill="none" xmlns="http://www.w3.org/2000/svg">
<path d="M24.0078 13.2344L5.53439 2.88749C5.37878 2.80152 5.20067 2.76499 5.02379 2.78277C4.84691 2.80054 4.67963 2.87177 4.54424 2.98697C4.40884 3.10218 4.31175 3.25589 4.26589 3.42765C4.22002 3.59941 4.22757 3.78106 4.28751 3.94842L7.76564 13.7047C7.84226 13.8941 7.84226 14.1059 7.76564 14.2953L4.28751 24.0515C4.22757 24.2189 4.22002 24.4006 4.26589 24.5723C4.31175 24.7441 4.40884 24.8978 4.54424 25.013C4.67963 25.1282 4.84691 25.1994 5.02379 25.2172C5.20067 25.235 5.37878 25.1985 5.53439 25.1125L24.0078 14.7656C24.1446 14.6899 24.2586 14.579 24.338 14.4444C24.4174 14.3097 24.4592 14.1563 24.4592 14C24.4592 13.8437 24.4174 13.6902 24.338 13.5556C24.2586 13.421 24.1446 13.31 24.0078 13.2344V13.2344Z" stroke="#49536E" stroke-width="2" stroke-linecap="round" stroke-linejoin="round"/>
<path d="M7.875 14H14.875" stroke="#49536E" stroke-width="2" stroke-linecap="round" stroke-linejoin="round"/>
</svg>
