<svg width="28" height="28" viewBox="0 0 28 28" fill="none" xmlns="http://www.w3.org/2000/svg">
<path d="M22.5969 23.4391L5.09688 20.2562C4.89411 20.2202 4.71055 20.1138 4.5785 19.9557C4.44646 19.7977 4.3744 19.5981 4.375 19.3922V8.60781C4.3744 8.40186 4.44646 8.2023 4.5785 8.04425C4.71055 7.8862 4.89411 7.77979 5.09688 7.74375L22.5969 4.56094C22.723 4.53852 22.8525 4.54406 22.9762 4.57718C23.1 4.61029 23.2149 4.67017 23.313 4.75258C23.411 4.83499 23.4898 4.93792 23.5437 5.05411C23.5976 5.1703 23.6254 5.29691 23.625 5.425V22.575C23.6254 22.7031 23.5976 22.8297 23.5437 22.9459C23.4898 23.0621 23.411 23.165 23.313 23.2474C23.2149 23.3298 23.1 23.3897 22.9762 23.4228C22.8525 23.4559 22.723 23.4615 22.5969 23.4391Z" stroke="#49536E" stroke-width="2" stroke-linecap="round" stroke-linejoin="round"/>
<path d="M1.75 14H26.25" stroke="#49536E" stroke-width="2" stroke-linecap="round" stroke-linejoin="round"/>
</svg>
