<svg width="28" height="28" viewBox="0 0 28 28" fill="none" xmlns="http://www.w3.org/2000/svg">
<path d="M10.1172 13.65C11.0176 15.5094 12.5211 17.009 14.3828 17.9047C14.5201 17.9697 14.672 17.9978 14.8235 17.9863C14.975 17.9748 15.1209 17.9241 15.2469 17.839L17.9812 16.0125C18.1021 15.9305 18.2417 15.8805 18.387 15.8672C18.5324 15.8538 18.6788 15.8774 18.8125 15.9359L23.9313 18.1344C24.1062 18.2072 24.2524 18.3355 24.3472 18.4995C24.4421 18.6635 24.4804 18.8542 24.4563 19.0422C24.294 20.3084 23.6759 21.4722 22.7177 22.3157C21.7594 23.1592 20.5266 23.6247 19.25 23.625C15.3049 23.625 11.5214 22.0578 8.73179 19.2682C5.94218 16.4786 4.375 12.6951 4.375 8.74998C4.37529 7.47335 4.84073 6.24056 5.68425 5.2823C6.52776 4.32404 7.69154 3.70596 8.95781 3.54372C9.14576 3.51958 9.33643 3.55789 9.50047 3.65276C9.66451 3.74762 9.79281 3.89378 9.86562 4.06872L12.0641 9.19841C12.1212 9.33004 12.1451 9.47371 12.1337 9.61677C12.1223 9.75982 12.0758 9.89786 11.9984 10.0187L10.1719 12.7969C10.0906 12.9225 10.0428 13.0669 10.0333 13.2163C10.0237 13.3656 10.0526 13.515 10.1172 13.65V13.65Z" stroke="#49536E" stroke-width="2" stroke-linecap="round" stroke-linejoin="round"/>
</svg>
