<svg width="28" height="28" viewBox="0 0 28 28" fill="none" xmlns="http://www.w3.org/2000/svg">
<path d="M14.4371 19.6875L11.0465 23.0781C10.8026 23.3228 10.5128 23.517 10.1938 23.6495C9.87468 23.782 9.5326 23.8502 9.18711 23.8502C8.84162 23.8502 8.49953 23.782 8.18046 23.6495C7.86139 23.517 7.57161 23.3228 7.32773 23.0781L4.92148 20.6719C4.67676 20.428 4.48259 20.1382 4.3501 19.8191C4.21761 19.5001 4.14941 19.158 4.14941 18.8125C4.14941 18.467 4.21761 18.1249 4.3501 17.8059C4.48259 17.4868 4.67676 17.197 4.92148 16.9531L8.31211 13.5625" stroke="#49536E" stroke-width="2" stroke-linecap="round" stroke-linejoin="round"/>
<path d="M6.125 21.875L2.625 25.375" stroke="#49536E" stroke-width="2" stroke-linecap="round" stroke-linejoin="round"/>
<path d="M25.375 2.625L21.875 6.125" stroke="#49536E" stroke-width="2" stroke-linecap="round" stroke-linejoin="round"/>
<path d="M15.75 15.75L13.125 18.375" stroke="#49536E" stroke-width="2" stroke-linecap="round" stroke-linejoin="round"/>
<path d="M12.25 12.25L9.625 14.875" stroke="#49536E" stroke-width="2" stroke-linecap="round" stroke-linejoin="round"/>
<path d="M19.6875 14.4375L23.0781 11.0469C23.3228 10.803 23.517 10.5132 23.6495 10.1941C23.782 9.87507 23.8502 9.53298 23.8502 9.1875C23.8502 8.84201 23.782 8.49992 23.6495 8.18085C23.517 7.86178 23.3228 7.57199 23.0781 7.32812L20.6719 4.92187C20.428 4.67715 20.1382 4.48298 19.8191 4.35049C19.5001 4.218 19.158 4.1498 18.8125 4.1498C18.467 4.1498 18.1249 4.218 17.8059 4.35049C17.4868 4.48298 17.197 4.67715 16.9531 4.92187L13.5625 8.3125" stroke="#49536E" stroke-width="2" stroke-linecap="round" stroke-linejoin="round"/>
<path d="M12.6875 7.4375L20.5625 15.3125" stroke="#49536E" stroke-width="2" stroke-linecap="round" stroke-linejoin="round"/>
<path d="M7.4375 12.6875L15.3125 20.5625" stroke="#49536E" stroke-width="2" stroke-linecap="round" stroke-linejoin="round"/>
</svg>
