<svg width="28" height="28" viewBox="0 0 28 28" fill="none" xmlns="http://www.w3.org/2000/svg">
<path fill-rule="evenodd" clip-rule="evenodd" d="M15.0058 5C15.0058 4.44772 14.5581 4 14.0058 4C13.4536 4 13.0058 4.44772 13.0058 5V13.0059H5C4.44772 13.0059 4 13.4536 4 14.0059C4 14.5581 4.44772 15.0059 5 15.0059H13.0058V23.0117C13.0058 23.564 13.4536 24.0117 14.0058 24.0117C14.5581 24.0117 15.0058 23.564 15.0058 23.0117V15.0059H23.0117C23.564 15.0059 24.0117 14.5581 24.0117 14.0059C24.0117 13.4536 23.564 13.0059 23.0117 13.0059H15.0058V5Z" fill="#49536E"/>
</svg>
