<svg width="28" height="28" viewBox="0 0 28 28" fill="none" xmlns="http://www.w3.org/2000/svg">
<path fill-rule="evenodd" clip-rule="evenodd" d="M4.5 21.132V6.25H23.5V21.132L21.4472 20.1056C21.1657 19.9648 20.8343 19.9648 20.5528 20.1056L17.5 21.632L14.4472 20.1056C14.1657 19.9648 13.8343 19.9648 13.5528 20.1056L10.5 21.632L7.44721 20.1056C7.16569 19.9648 6.83431 19.9648 6.55279 20.1056L4.5 21.132ZM4.375 4.25C3.87772 4.25 3.40081 4.44754 3.04917 4.79917C2.69754 5.15081 2.5 5.62772 2.5 6.125V22.75C2.5 23.0966 2.67945 23.4184 2.97427 23.6007C3.26909 23.7829 3.63723 23.7994 3.94721 23.6444L7 22.118L10.0528 23.6444C10.3343 23.7852 10.6657 23.7852 10.9472 23.6444L14 22.118L17.0528 23.6444C17.3343 23.7852 17.6657 23.7852 17.9472 23.6444L21 22.118L24.0528 23.6444C24.3628 23.7994 24.7309 23.7829 25.0257 23.6007C25.3205 23.4184 25.5 23.0966 25.5 22.75V6.125C25.5 5.62772 25.3025 5.15081 24.9508 4.79917C24.5992 4.44754 24.1223 4.25 23.625 4.25H4.375ZM7.3125 11.375C7.3125 10.8227 7.76022 10.375 8.3125 10.375H19.6875C20.2398 10.375 20.6875 10.8227 20.6875 11.375C20.6875 11.9273 20.2398 12.375 19.6875 12.375H8.3125C7.76022 12.375 7.3125 11.9273 7.3125 11.375ZM7.3125 14.875C7.3125 14.3227 7.76022 13.875 8.3125 13.875H19.6875C20.2398 13.875 20.6875 14.3227 20.6875 14.875C20.6875 15.4273 20.2398 15.875 19.6875 15.875H8.3125C7.76022 15.875 7.3125 15.4273 7.3125 14.875Z" fill="#49536E"/>
</svg>
