<svg width="28" height="28" viewBox="0 0 28 28" fill="none" xmlns="http://www.w3.org/2000/svg">
<path d="M15.75 24.5H12.25" stroke="#49536E" stroke-width="2" stroke-linecap="round" stroke-linejoin="round"/>
<path d="M13.4531 2.16563C11.375 3.82813 4.42969 10.4781 10.5 21H17.5C23.45 10.4781 16.6031 3.83906 14.5469 2.16563C14.3935 2.03749 14.1999 1.96729 14 1.96729C13.8001 1.96729 13.6066 2.03749 13.4531 2.16563Z" stroke="#49536E" stroke-width="2" stroke-linecap="round" stroke-linejoin="round"/>
<path d="M8.08279 12.1846L4.64842 16.2971C4.5619 16.398 4.50085 16.5182 4.4704 16.6476C4.43995 16.7771 4.44098 16.9119 4.47342 17.0408L5.81873 23.133C5.85119 23.2778 5.91996 23.412 6.01855 23.5229C6.11714 23.6338 6.24233 23.7179 6.38233 23.7671C6.52234 23.8163 6.67256 23.8291 6.81888 23.8043C6.96519 23.7795 7.10279 23.7178 7.21873 23.6252L10.5 21.0002" stroke="#49536E" stroke-width="2" stroke-linecap="round" stroke-linejoin="round"/>
<path d="M19.8516 12.0967L23.3516 16.2967C23.4381 16.3976 23.4991 16.5178 23.5296 16.6473C23.56 16.7767 23.559 16.9115 23.5266 17.0404L22.1813 23.1326C22.1488 23.2774 22.08 23.4116 21.9814 23.5225C21.8828 23.6334 21.7577 23.7175 21.6176 23.7667C21.4776 23.8159 21.3274 23.8287 21.1811 23.8039C21.0348 23.7791 20.8972 23.7174 20.7812 23.6248L17.5 20.9998" stroke="#49536E" stroke-width="2" stroke-linecap="round" stroke-linejoin="round"/>
<path d="M14 11.8125C14.7249 11.8125 15.3125 11.2249 15.3125 10.5C15.3125 9.77513 14.7249 9.1875 14 9.1875C13.2751 9.1875 12.6875 9.77513 12.6875 10.5C12.6875 11.2249 13.2751 11.8125 14 11.8125Z" fill="#49536E"/>
</svg>
