<svg width="28" height="28" viewBox="0 0 28 28" fill="none" xmlns="http://www.w3.org/2000/svg">
<path d="M21.875 19.25V7.00002C21.8764 6.6549 21.8095 6.3129 21.6781 5.99377C21.5467 5.67464 21.3534 5.38468 21.1094 5.14064C20.8653 4.8966 20.5754 4.7033 20.2563 4.57189C19.9371 4.44049 19.5951 4.37358 19.25 4.37502H4.375" stroke="#49536E" stroke-width="2" stroke-linecap="round" stroke-linejoin="round"/>
<path d="M11.375 11.375H18.375" stroke="#49536E" stroke-width="2" stroke-linecap="round" stroke-linejoin="round"/>
<path d="M11.375 14.875H18.375" stroke="#49536E" stroke-width="2" stroke-linecap="round" stroke-linejoin="round"/>
<path d="M2.41719 8.75C2.13384 8.43275 1.93183 8.05139 1.82855 7.63876C1.72527 7.22612 1.72382 6.79457 1.82431 6.38124C1.9248 5.96792 2.12423 5.58521 2.40544 5.26605C2.68664 4.9469 3.04119 4.70086 3.43857 4.54912C3.83594 4.39737 4.26424 4.34447 4.6866 4.39496C5.10896 4.44546 5.51272 4.59783 5.86313 4.83897C6.21354 5.08012 6.50009 5.4028 6.69814 5.77925C6.89618 6.1557 6.99977 6.57464 7 7V21C7.00023 21.4254 7.10382 21.8443 7.30186 22.2208C7.49991 22.5972 7.78646 22.9199 8.13687 23.161C8.48728 23.4022 8.89104 23.5545 9.3134 23.605C9.73576 23.6555 10.1641 23.6026 10.5614 23.4509C10.9588 23.2991 11.3134 23.0531 11.5946 22.734C11.8758 22.4148 12.0752 22.0321 12.1757 21.6188C12.2762 21.2054 12.2747 20.7739 12.1715 20.3612C12.0682 19.9486 11.8662 19.5673 11.5828 19.25H23.8328C24.1707 19.6278 24.392 20.0953 24.47 20.5961C24.548 21.0969 24.4793 21.6096 24.2723 22.0722C24.0653 22.5349 23.7287 22.9277 23.3033 23.2032C22.8779 23.4787 22.3818 23.6252 21.875 23.625H9.625" stroke="#49536E" stroke-width="2" stroke-linecap="round" stroke-linejoin="round"/>
</svg>
