<svg width="28" height="28" viewBox="0 0 28 28" fill="none" xmlns="http://www.w3.org/2000/svg">
<path fill-rule="evenodd" clip-rule="evenodd" d="M5.375 6.25V12.5453C5.375 20.9443 12.4159 23.7918 14 24.3245C15.5841 23.7918 22.625 20.9443 22.625 12.5453V6.25H5.375ZM3.92417 4.79917C4.27581 4.44754 4.75272 4.25 5.25 4.25H22.75C23.2473 4.25 23.7242 4.44754 24.0758 4.79917C24.4275 5.15081 24.625 5.62772 24.625 6.125V12.5453C24.625 22.4191 16.2416 25.6867 14.6014 26.2323C14.2125 26.3712 13.7875 26.3712 13.3986 26.2323C11.7584 25.6867 3.375 22.4191 3.375 12.5453V6.125C3.375 5.62772 3.57254 5.15081 3.92417 4.79917ZM9.5 14C9.5 13.4477 9.94772 13 10.5 13H13V10.5C13 9.94772 13.4477 9.5 14 9.5C14.5523 9.5 15 9.94772 15 10.5V13H17.5C18.0523 13 18.5 13.4477 18.5 14C18.5 14.5523 18.0523 15 17.5 15H15V17.5C15 18.0523 14.5523 18.5 14 18.5C13.4477 18.5 13 18.0523 13 17.5V15H10.5C9.94772 15 9.5 14.5523 9.5 14Z" fill="#214099"/>
</svg>
