<svg width="28" height="28" viewBox="0 0 28 28" fill="none" xmlns="http://www.w3.org/2000/svg">
<path d="M20.65 13.2564L7.45937 5.18452C7.32609 5.10229 7.17318 5.05734 7.01659 5.05436C6.86001 5.05138 6.7055 5.09048 6.56918 5.16757C6.43287 5.24467 6.31974 5.35694 6.24161 5.49267C6.16348 5.6284 6.1232 5.78261 6.125 5.93921V22.0611C6.1232 22.2177 6.16348 22.3719 6.24161 22.5076C6.31974 22.6433 6.43287 22.7556 6.56918 22.8327C6.7055 22.9098 6.86001 22.9489 7.01659 22.9459C7.17318 22.943 7.32609 22.898 7.45937 22.8158L20.65 14.7439C20.7766 14.6654 20.8811 14.5559 20.9536 14.4258C21.026 14.2956 21.0641 14.1491 21.0641 14.0001C21.0641 13.8512 21.026 13.7047 20.9536 13.5745C20.8811 13.4444 20.7766 13.3349 20.65 13.2564Z" stroke="#49536E" stroke-width="2" stroke-linecap="round" stroke-linejoin="round"/>
<path d="M21.875 4.375V23.625" stroke="#49536E" stroke-width="2" stroke-linecap="round" stroke-linejoin="round"/>
</svg>
