<svg width="28" height="28" viewBox="0 0 28 28" fill="none" xmlns="http://www.w3.org/2000/svg">
<path d="M3.5 7V15.75" stroke="#49536E" stroke-width="2" stroke-linecap="round" stroke-linejoin="round"/>
<path d="M5.92773 23.6252C6.80324 22.2823 7.99993 21.1791 9.40939 20.4155C10.8189 19.6519 12.3966 19.252 13.9996 19.252C15.6026 19.252 17.1804 19.6519 18.5898 20.4155C19.9993 21.1791 21.196 22.2823 22.0715 23.6252" stroke="#49536E" stroke-width="2" stroke-linecap="round" stroke-linejoin="round"/>
<path d="M24.5 7L14 10.5L3.5 7L14 3.5L24.5 7Z" stroke="#49536E" stroke-width="2" stroke-linecap="round" stroke-linejoin="round"/>
<path d="M18.5172 8.9906C19.3198 9.86711 19.8501 10.9582 20.0434 12.1309C20.2368 13.3035 20.0847 14.5071 19.6059 15.5948C19.127 16.6826 18.3421 17.6076 17.3467 18.2569C16.3513 18.9063 15.1885 19.2521 14 19.2521C12.8115 19.2521 11.6487 18.9063 10.6533 18.2569C9.65793 17.6076 8.87297 16.6826 8.39413 15.5948C7.91529 14.5071 7.76326 13.3035 7.95657 12.1309C8.14988 10.9582 8.68017 9.86711 9.48282 8.9906" stroke="#49536E" stroke-width="2" stroke-linecap="round" stroke-linejoin="round"/>
</svg>
