<svg width="30" height="28" viewBox="0 0 30 28" fill="none" xmlns="http://www.w3.org/2000/svg">
<path d="M1.875 18.375L4.31406 10.2484C4.36836 10.0675 4.47972 9.90908 4.63152 9.79671C4.78331 9.68434 4.96739 9.6241 5.15625 9.62499H14.3438C14.5326 9.6241 14.7167 9.68434 14.8685 9.79671C15.0203 9.90908 15.1316 10.0675 15.1859 10.2484L17.625 18.375" stroke="#49536E" stroke-width="2" stroke-linecap="round" stroke-linejoin="round"/>
<path d="M18.5 9.62499H19.5938C19.7826 9.6241 19.9667 9.68434 20.1185 9.79671C20.2703 9.90908 20.3816 10.0675 20.4359 10.2484L22.875 18.375" stroke="#49536E" stroke-width="2" stroke-linecap="round" stroke-linejoin="round"/>
<path d="M23.75 9.62499H24.8438C25.0326 9.6241 25.2167 9.68434 25.3685 9.79671C25.5203 9.90908 25.6316 10.0675 25.6859 10.2484L28.125 18.375" stroke="#49536E" stroke-width="2" stroke-linecap="round" stroke-linejoin="round"/>
<path d="M1.875 18.375H28.125" stroke="#49536E" stroke-width="2" stroke-linecap="round" stroke-linejoin="round"/>
</svg>
