<svg width="28" height="28" viewBox="0 0 28 28" fill="none" xmlns="http://www.w3.org/2000/svg">
<path d="M20.3875 21.4812L25.0469 14.4812C25.1437 14.3394 25.1956 14.1717 25.1956 14C25.1956 13.8283 25.1437 13.6605 25.0469 13.5187L20.3875 6.51873C20.3084 6.39673 20.1997 6.29668 20.0716 6.22785C19.9435 6.15903 19.8001 6.12364 19.6547 6.12498H2.625L7.54688 13.5187C7.64375 13.6605 7.69557 13.8283 7.69557 14C7.69557 14.1717 7.64375 14.3394 7.54688 14.4812L2.625 21.875H19.6547C19.8001 21.8763 19.9435 21.8409 20.0716 21.7721C20.1997 21.7033 20.3084 21.6032 20.3875 21.4812V21.4812Z" stroke="#49536E" stroke-width="2" stroke-linecap="round" stroke-linejoin="round"/>
</svg>
