<svg width="28" height="28" viewBox="0 0 28 28" fill="none" xmlns="http://www.w3.org/2000/svg">
<path d="M21.2625 21.4812L26.25 14L21.2625 6.51873C21.1834 6.39673 21.0747 6.29668 20.9466 6.22785C20.8185 6.15903 20.6751 6.12364 20.5297 6.12498H4.375C4.14294 6.12498 3.92038 6.21716 3.75628 6.38126C3.59219 6.54535 3.5 6.76791 3.5 6.99998V21C3.5 21.232 3.59219 21.4546 3.75628 21.6187C3.92038 21.7828 4.14294 21.875 4.375 21.875H20.5297C20.6751 21.8763 20.8185 21.8409 20.9466 21.7721C21.0747 21.7033 21.1834 21.6032 21.2625 21.4812V21.4812Z" stroke="#49536E" stroke-width="2" stroke-linecap="round" stroke-linejoin="round"/>
</svg>
