<svg width="29" height="28" viewBox="0 0 29 28" fill="none" xmlns="http://www.w3.org/2000/svg">
<path fill-rule="evenodd" clip-rule="evenodd" d="M8.75 8C6.88604 8 5.375 9.51104 5.375 11.375C5.375 13.239 6.88604 14.75 8.75 14.75C10.614 14.75 12.125 13.239 12.125 11.375C12.125 9.51104 10.614 8 8.75 8ZM3.375 11.375C3.375 8.40647 5.78147 6 8.75 6C11.7185 6 14.125 8.40647 14.125 11.375C14.125 14.3435 11.7185 16.75 8.75 16.75C5.78147 16.75 3.375 14.3435 3.375 11.375Z" fill="#304A4A"/>
<path fill-rule="evenodd" clip-rule="evenodd" d="M15.625 8.75C15.625 8.19772 16.0727 7.75 16.625 7.75H27.125C27.6773 7.75 28.125 8.19772 28.125 8.75C28.125 9.30228 27.6773 9.75 27.125 9.75H16.625C16.0727 9.75 15.625 9.30228 15.625 8.75Z" fill="#304A4A"/>
<path fill-rule="evenodd" clip-rule="evenodd" d="M15.625 14C15.625 13.4477 16.0727 13 16.625 13H27.125C27.6773 13 28.125 13.4477 28.125 14C28.125 14.5523 27.6773 15 27.125 15H16.625C16.0727 15 15.625 14.5523 15.625 14Z" fill="#304A4A"/>
<path fill-rule="evenodd" clip-rule="evenodd" d="M18.25 19.25C18.25 18.6977 18.6977 18.25 19.25 18.25H27.125C27.6773 18.25 28.125 18.6977 28.125 19.25C28.125 19.8023 27.6773 20.25 27.125 20.25H19.25C18.6977 20.25 18.25 19.8023 18.25 19.25Z" fill="#304A4A"/>
<path fill-rule="evenodd" clip-rule="evenodd" d="M8.75 16.7363C7.41774 16.7363 6.12338 17.1797 5.07096 17.9966C4.01855 18.8135 3.26795 19.9575 2.9375 21.2481C2.80051 21.7831 2.25573 22.1058 1.72071 21.9688C1.18568 21.8318 0.863008 21.287 0.999997 20.752C1.4406 19.0312 2.4414 17.5059 3.84462 16.4167C5.24784 15.3275 6.97366 14.7363 8.75 14.7363C10.5263 14.7363 12.2522 15.3275 13.6554 16.4167C15.0586 17.5059 16.0594 19.0312 16.5 20.752C16.637 21.287 16.3143 21.8318 15.7793 21.9688C15.2443 22.1058 14.6995 21.7831 14.5625 21.2481C14.232 19.9575 13.4814 18.8135 12.429 17.9966C11.3766 17.1797 10.0823 16.7363 8.75 16.7363Z" fill="#304A4A"/>
</svg>
