<svg width="28" height="28" viewBox="0 0 28 28" fill="none" xmlns="http://www.w3.org/2000/svg">
<path fill-rule="evenodd" clip-rule="evenodd" d="M5.375 22.285C5.83852 20.372 6.92529 18.6661 8.4658 17.4371C9.094 16.936 9.78277 16.5261 10.5117 16.2144C9.35705 15.2286 8.625 13.7623 8.625 12.125C8.625 9.15647 11.0315 6.75 14 6.75C16.9685 6.75 19.375 9.15647 19.375 12.125C19.375 13.7622 18.6431 15.2284 17.4886 16.2142C18.2177 16.5259 18.9066 16.9359 19.535 17.4371C21.0746 18.6654 22.161 20.37 22.625 22.2817V5.375H5.375V22.285ZM20.6489 22.625C20.2729 21.1963 19.4458 19.9245 18.2878 19.0006C17.0699 18.0291 15.5583 17.5 14.0004 17.5C12.4425 17.5 10.9309 18.0291 9.71303 19.0006C8.55495 19.9245 7.72789 21.1963 7.35185 22.625H20.6489ZM3.375 5.25C3.375 4.21447 4.21447 3.375 5.25 3.375H22.75C23.7855 3.375 24.625 4.21447 24.625 5.25V22.75C24.625 23.7855 23.7855 24.625 22.75 24.625H5.25C4.21447 24.625 3.375 23.7855 3.375 22.75V5.25ZM14 8.75C12.136 8.75 10.625 10.261 10.625 12.125C10.625 13.989 12.136 15.5 14 15.5C15.864 15.5 17.375 13.989 17.375 12.125C17.375 10.261 15.864 8.75 14 8.75Z" fill="#49536E"/>
</svg>
