<svg width="28" height="28" viewBox="0 0 28 28" fill="none" xmlns="http://www.w3.org/2000/svg">
<path fill-rule="evenodd" clip-rule="evenodd" d="M14 4.5C8.75329 4.5 4.5 8.75329 4.5 14C4.5 19.2467 8.75329 23.5 14 23.5C19.2467 23.5 23.5 19.2467 23.5 14C23.5 8.75329 19.2467 4.5 14 4.5ZM2.5 14C2.5 7.64873 7.64873 2.5 14 2.5C20.3513 2.5 25.5 7.64873 25.5 14C25.5 20.3513 20.3513 25.5 14 25.5C7.64873 25.5 2.5 20.3513 2.5 14ZM14 7.75C14.5523 7.75 15 8.19772 15 8.75V14.875C15 15.4273 14.5523 15.875 14 15.875C13.4477 15.875 13 15.4273 13 14.875V8.75C13 8.19772 13.4477 7.75 14 7.75ZM15.3125 18.8125C15.3125 19.5374 14.7249 20.125 14 20.125C13.2751 20.125 12.6875 19.5374 12.6875 18.8125C12.6875 18.0876 13.2751 17.5 14 17.5C14.7249 17.5 15.3125 18.0876 15.3125 18.8125Z" fill="#49536E"/>
</svg>
